<?xml version="1.0" standalone="no"?>
<!DOCTYPE svg PUBLIC "-//W3C//DTD SVG 20010904//EN"
 "http://www.w3.org/TR/2001/REC-SVG-20010904/DTD/svg10.dtd">
<svg version="1.0" xmlns="http://www.w3.org/2000/svg"
 width="468pt" height="404pt" viewBox="0 0 468 404"
 preserveAspectRatio="xMidYMid meet">
<metadata>
Created by potrace 1.8, written by Peter Selinger 2001-2007
</metadata>
<g transform="translate(0,404) scale(0.174627,-0.174627)"
fill="#000000" stroke="none">
<path d="M110 2175 l0 -75 149 0 149 0 44 -52 c25 -29 185 -249 358 -488 296
-411 312 -436 299 -457 -8 -12 -157 -211 -332 -442 -252 -333 -324 -422 -350
-431 -18 -7 -107 -15 -199 -17 l-168 -6 0 -73 0 -74 455 0 455 0 0 74 0 73
-112 6 c-122 6 -168 17 -168 42 0 9 57 89 126 178 70 89 190 246 268 349 110
147 143 185 153 175 6 -6 131 -176 277 -377 l265 -365 -129 -3 -130 -3 0 -74
0 -75 545 0 545 0 0 75 0 75 -154 0 -154 0 -79 108 c-44 59 -178 244 -298 412
-120 168 -264 366 -319 440 -55 74 -100 143 -100 152 -1 21 526 721 560 743
30 19 158 35 297 35 l97 0 0 75 0 75 -460 0 -460 0 0 -73 0 -74 103 -7 c98 -6
172 -18 184 -30 8 -7 -428 -587 -438 -584 -5 2 -108 140 -229 308 l-221 305
131 3 130 3 0 74 0 75 -545 0 -545 0 0 -75z"/>
</g>
</svg>
