<?xml version="1.0" encoding="UTF-8" standalone="no"?>
<svg
   xmlns:dc="http://purl.org/dc/elements/1.1/"
   xmlns:cc="http://creativecommons.org/ns#"
   xmlns:rdf="http://www.w3.org/1999/02/22-rdf-syntax-ns#"
   xmlns:svg="http://www.w3.org/2000/svg"
   xmlns="http://www.w3.org/2000/svg"
   xmlns:sodipodi="http://sodipodi.sourceforge.net/DTD/sodipodi-0.dtd"
   xmlns:inkscape="http://www.inkscape.org/namespaces/inkscape"
   version="1.1"
   width="850.39368"
   height="850.39368"
   id="svg3336"
   inkscape:version="0.91 r13725"
   viewBox="0 0 850.39368 850.39368"
   sodipodi:docname="sloan_c.svg">
  <metadata
     id="metadata3348">
    <rdf:RDF>
      <cc:Work
         rdf:about="">
        <dc:format>image/svg+xml</dc:format>
        <dc:type
           rdf:resource="http://purl.org/dc/dcmitype/StillImage" />
        <dc:title></dc:title>
      </cc:Work>
    </rdf:RDF>
  </metadata>
  <defs
     id="defs3346" />
  <sodipodi:namedview
     pagecolor="#ffffff"
     bordercolor="#666666"
     borderopacity="1"
     objecttolerance="10"
     gridtolerance="10"
     guidetolerance="10"
     inkscape:pageopacity="0"
     inkscape:pageshadow="2"
     inkscape:window-width="1920"
     inkscape:window-height="1017"
     id="namedview3344"
     showgrid="false"
     inkscape:zoom="0.99953707"
     inkscape:cx="425.19684"
     inkscape:cy="425.19684"
     inkscape:window-x="-8"
     inkscape:window-y="-8"
     inkscape:window-maximized="1"
     inkscape:current-layer="svg3336" />
  <g
     id="g3338">
    <path
       d="m 424.6778,773.9195 c 68.6581,-2.3768 132.006,-16.5757 185.6147,-52.4575 11.5896,-8.4032 24.7732,-16.6374 36.5065,-25.8053 15.1477,-11.8357 27.8735,-25.7823 41.4313,-39.2528 17.1181,-17.0082 29.2808,-37.005 43.2659,-59.6233 8.1216,-14.5316 17.5013,-29.5184 22.3116,-45.7769 3.0208,-10.2091 7.5184,-20.4143 10.5588,-30.3998 3.0751,-10.0995 4.6927,-19.9793 7.5071,-30.1066 -48.9073,0 -97.8148,0 -146.722,0 -2.7906,6.148 -4.8837,12.9538 -7.7407,18.9278 -7.3631,15.3964 -15.9509,29.3042 -26.0429,42.1375 -13.9097,17.6881 -32.0374,31.9754 -49.6654,45.5613 -36.8047,22.8242 -75.468,35.483 -117.0249,35.0845 -29.399,-1.5492 -59.6253,-6.1262 -87.275,-18.6854 -13.2468,-6.0168 -26.3898,-13.4819 -38.7458,-22.6812 -6.9913,-5.2053 -13.1904,-11.5528 -20.3529,-17.0577 -25.9604,-23.8999 -46.6474,-56.1208 -57.6631,-94.3241 -5.3672,-18.6151 -6.107,-38.3875 -8.5331,-59.8182 -1.0909,-37.2865 8.6357,-67.058 21.8406,-93.9573 7.5042,-15.2875 16.573,-29.1486 27.3081,-41.987 5.4381,-6.5037 10.6937,-13.2936 17.6371,-18.7558 23.4629,-23.5756 48.3214,-36.2814 75.4042,-45.9384 14.0835,-5.022 27.4229,-8.1841 42.7254,-10.1457 8.5768,-1.0994 18.5398,-2.1075 27.6545,-1.7824 30.0651,-0.9798 55.3076,6.3543 77.7099,14.6526 11.3136,4.191 21.2397,9.3748 30.726,15.0469 5.0719,3.0326 10.6563,5.1764 14.8399,9.6766 36.4308,25.4091 62.1053,59.5677 77.1978,102.3347 48.9075,0 97.8148,0 146.7223,0 -2.0444,-8.4514 -4.0887,-16.9031 -6.1331,-25.3544 l -7.7554,-24.1654 c -6.3468,-18.8176 -15.269,-37.7422 -26.489,-56.7633 -28.6641,-49.8519 -67.7744,-91.7913 -119.8997,-123.8736 -7.2282,-5.6767 -15.786,-9.4309 -23.7083,-13.5144 C 573.837,97.872 559.8938,91.6467 545.4368,86.4776 507.0903,72.7668 467.5747,65.463 424.6778,65.3641 c -8.0167,-0.3622 -15.7234,0.2789 -23.9115,0.7941 -3.0435,0.1913 -6.3434,0.4011 -9.4209,0.7534 -13.9644,1.5985 -28.2667,3.3548 -42.7645,6.6448 -32.5521,7.3877 -66.3343,17.8615 -102.321,39.9466 -34.7911,18.5866 -63.2554,44.8459 -86.6333,71.0545 -16.6363,18.6509 -31.0417,35.3462 -41.7671,57.9454 -14.429,22.4663 -23.786,47.225 -31.5681,71.8889 -10.5831,33.5405 -16.8443,67.8964 -15.8968,105.25 0.4362,45.8396 8.854,86.8845 21.9565,123.0562 4.6541,12.8484 10.2634,25.3315 16.1162,36.8815 3.0502,6.0193 5.1076,11.9233 9.3922,17.2011 29.6472,49.2687 71.8775,94.1673 128.6697,129.1569 32.3392,14.5575 63.7038,30.3378 97.569,38.7779 25.7975,6.4294 53.7454,6.9268 80.5796,9.2041 z"
       style="fill:#151616;fill-rule:evenodd;stroke:#151616;stroke-width:0.56690001;stroke-linecap:butt;stroke-linejoin:miter;stroke-dasharray:none"
       id="path3340"
       inkscape:connector-curvature="0" />
    <g
       id="g3342" />
  </g>
</svg>
