<?xml version="1.0" encoding="UTF-8"?>
<!DOCTYPE svg PUBLIC "-//W3C//DTD SVG 1.1//EN" "http://www.w3.org/Graphics/SVG/1.1/DTD/svg11.dtd">
<!-- Creator: CorelDRAW X6 -->
<svg xmlns="http://www.w3.org/2000/svg" xml:space="preserve" width="282mm" height="235mm" version="1.1" style="shape-rendering:geometricPrecision; text-rendering:geometricPrecision; image-rendering:optimizeQuality; fill-rule:evenodd; clip-rule:evenodd"
viewBox="0 0 282000 235000"
 xmlns:xlink="http://www.w3.org/1999/xlink">
 <defs>
  <style type="text/css">
   <![CDATA[
    .str6 {stroke:#2B2A29;stroke-width:35.814}
    .str0 {stroke:navy;stroke-width:165.816;stroke-linecap:round;stroke-linejoin:round}
    .str1 {stroke:#191497;stroke-width:165.816;stroke-linecap:round;stroke-linejoin:round}
    .str5 {stroke:#E31E24;stroke-width:470}
    .str2 {stroke:#FEFEFE;stroke-width:94;stroke-dasharray:94.000000 282.000001}
    .str3 {stroke:#2B2A29;stroke-width:940}
    .str4 {stroke:black;stroke-width:1175}
    .fil1 {fill:none}
    .fil5 {fill:#2B2A29}
    .fil2 {fill:#EBECEC}
    .fil0 {fill:black}
    .fil4 {fill:#2B2A29;fill-rule:nonzero}
    .fil3 {fill:black;fill-opacity:0.000000}
    .fnt1 {font-weight:normal;font-size:1649.51px;font-family:'Arial'}
    .fnt0 {font-weight:normal;font-size:5803.18px;font-family:'Arial'}
   ]]>
  </style>
 </defs>
 <g id="Letters">
  <metadata id="CorelCorpID_0Corel-Layer"/>
  <polygon class="fil0" points="10858032,167442 10863939,167442 10863939,166260 10859735,166260 10863939,162715 10863939,161534 10858032,161534 10858032,162715 10862184,162715 10858032,166260 "/>
  <polygon class="fil0" points="10858032,167442 10863939,167442 10863939,166260 10859735,166260 10863939,162715 10863939,161534 10858032,161534 10858032,162715 10862184,162715 10858032,166260 "/>
  <polygon class="fil0" points="10858032,167442 10863939,167442 10863939,166260 10859735,166260 10863939,162715 10863939,161534 10858032,161534 10858032,162715 10862184,162715 10858032,166260 "/>
  <polygon class="fil0" points="10858032,167442 10863939,167442 10863939,166260 10859735,166260 10863939,162715 10863939,161534 10858032,161534 10858032,162715 10862184,162715 10858032,166260 "/>
 </g>
 <g id="Buttons">
  <metadata id="CorelCorpID_1Corel-Layer"/>
  <g transform="matrix(0.998541 0 0 1.00001 -109283 -101342)">
   <text x="141000" y="117500"  class="fil0 fnt0">0.1</text>
   <text x="149067" y="117500"  class="fil0 fnt0">3</text>
  </g>
  <g transform="matrix(0.998088 0 0 1.00001 -109489 -108392)">
   <text x="141000" y="117500"  class="fil0 fnt0">0</text>
   <text x="145840" y="117500"  class="fil0 fnt0">9</text>
   <text x="144228" y="117500"  class="fil0 fnt0">.</text>
  </g>
 </g>
 <g id="Scale">
  <metadata id="CorelCorpID_2Corel-Layer"/>
  <polyline class="fil1 str0" points="11,4708 11,8 4711,8 "/>
  <polyline class="fil1 str0" points="4711,133958 11,133958 11,129258 "/>
  <polyline class="fil1 str0" points="258511,129257 258511,133958 253811,133958 "/>
  <polyline class="fil1 str1" points="253811,8 258511,8 258511,4708 "/>
  <polygon class="fil0" points="10858032,167442 10863939,167442 10863939,166260 10859735,166260 10863939,162715 10863939,161534 10858032,161534 10858032,162715 10862184,162715 10858032,166260 "/>
  <polygon class="fil0" points="10858032,167442 10863939,167442 10863939,166260 10859735,166260 10863939,162715 10863939,161534 10858032,161534 10858032,162715 10862184,162715 10858032,166260 "/>
  <polygon class="fil0" points="10858032,167442 10863939,167442 10863939,166260 10859735,166260 10863939,162715 10863939,161534 10858032,161534 10858032,162715 10862184,162715 10858032,166260 "/>
  <polygon class="fil0" points="10858032,167442 10863939,167442 10863939,166260 10859735,166260 10863939,162715 10863939,161534 10858032,161534 10858032,162715 10862184,162715 10858032,166260 "/>
  <polygon class="fil0" points="10858032,167442 10863939,167442 10863939,166260 10859735,166260 10863939,162715 10863939,161534 10858032,161534 10858032,162715 10862184,162715 10858032,166260 "/>
  <polygon class="fil0" points="10858032,167442 10863939,167442 10863939,166260 10859735,166260 10863939,162715 10863939,161534 10858032,161534 10858032,162715 10862184,162715 10858032,166260 "/>
  <polygon class="fil0" points="10858032,167442 10863939,167442 10863939,166260 10859735,166260 10863939,162715 10863939,161534 10858032,161534 10858032,162715 10862184,162715 10858032,166260 "/>
  <polygon class="fil0" points="10858032,167442 10863939,167442 10863939,166260 10859735,166260 10863939,162715 10863939,161534 10858032,161534 10858032,162715 10862184,162715 10858032,166260 "/>
  <g transform="matrix(1.00135 0 0 0.999994 -136927 -101346)">
   <text x="141000" y="117500"  class="fil0 fnt0">Decimal</text>
  </g>
  <g transform="matrix(1.00092 0 0 0.999994 -136842 -108974)">
   <text x="141000" y="117500"  class="fil0 fnt0">LogMar</text>
  </g>
 </g>
 <g id="Button2">
  <metadata id="CorelCorpID_3Corel-Layer"/>
  <g id="_907360464">
   <a xlink:href="Axanivis_50Etdrs_L_LgMarOneLine.svg">
    <rect class="fil2 str2" x="951" y="116568" width="37600" height="16450"/>
    <g>
     <line class="fil1 str3" x1="32049" y1="124793" x2="7453" y2= "124793" />
    </g>
   </a>
  </g>
 </g>
 <g id="DialChart">
  <metadata id="CorelCorpID_4Corel-Layer"/>
  <g id="_907359408">
   <a xlink:href="Axanivis_50Etdrs_L_LgMar08_V.svg">
    <rect class="fil3" x="130671" y="116567" width="37600" height="16450"/>
    <rect class="fil2 str2" x="130671" y="116568" width="37600" height="16450"/>
    <g>
     <g>
      <path class="fil4" d="M156315 125262l-19142 0 0 -940 19142 0 0 940zm5454 -470l-5755 2879 0 -5755 5755 2876z"/>
     </g>
    </g>
   </a>
  </g>
  <g>
   <a xlink:href="Axanivis_50Etdrs_L_LgMar09_S_Dial.svg">
    <rect class="fil3" x="219971" y="100117" width="37600" height="32900"/>
    <rect class="fil2" x="219971" y="100118" width="37600" height="32900"/>
    <g id="_907358512">
     <line class="fil1 str4" x1="227245" y1="117670" x2="252183" y2= "117670" />
    </g>
    <g id="_907357936">
     <line class="fil1 str4" x1="239714" y1="130139" x2="239714" y2= "105201" />
    </g>
    <g id="_907357360">
     <line class="fil1 str4" x1="245949" y1="128469" x2="233480" y2= "106872" />
    </g>
    <g id="_907356784">
     <line class="fil1 str4" x1="250513" y1="123905" x2="228916" y2= "111436" />
    </g>
    <g id="_975712672">
     <line class="fil1 str4" x1="250513" y1="111436" x2="228916" y2= "123905" />
    </g>
    <g id="_906035040">
     <line class="fil1 str4" x1="245949" y1="106872" x2="233480" y2= "128469" />
    </g>
    <g id="_975309344">
     <line class="fil1 str4" x1="242942" y1="105626" x2="236487" y2= "129715" />
    </g>
    <g id="_975810816">
     <line class="fil1 str4" x1="236487" y1="105626" x2="242942" y2= "129715" />
    </g>
    <g id="_912094656">
     <line class="fil1 str4" x1="230897" y1="108853" x2="248531" y2= "126487" />
    </g>
    <g id="_912094080">
     <line class="fil1 str4" x1="227670" y1="114443" x2="251759" y2= "120898" />
    </g>
    <g id="_912093504">
     <line class="fil1 str4" x1="227670" y1="120898" x2="251759" y2= "114443" />
    </g>
    <g id="_912092928">
     <line class="fil1 str4" x1="230897" y1="126487" x2="248531" y2= "108853" />
    </g>
    <g transform="matrix(0.998088 0 0 1.00001 98107.6 -13665.1)">
     <text x="141000" y="117500"  class="fil0 fnt1">90</text>
    </g>
    <g transform="matrix(0.998088 0 0 1.00001 113372 591.011)">
     <text x="141000" y="117500"  class="fil0 fnt1">0</text>
    </g>
    <g transform="matrix(0.998088 0 0 1.00001 82656.7 683.446)">
     <text x="141000" y="117500"  class="fil0 fnt1">180</text>
    </g>
    <g transform="matrix(0.998088 0 0 1.00001 112129 -2832.59)">
     <text x="141000" y="117500"  class="fil0 fnt1">15</text>
    </g>
    <g transform="matrix(0.998088 0 0 1.00001 110577 -6262.01)">
     <text x="141000" y="117500"  class="fil0 fnt1">30</text>
    </g>
    <g transform="matrix(0.998088 0 0 1.00001 108232 -9537.22)">
     <text x="141000" y="117500"  class="fil0 fnt1">45</text>
    </g>
    <g transform="matrix(0.998088 0 0 1.00001 105745 -11716.8)">
     <text x="141000" y="117500"  class="fil0 fnt1">60</text>
    </g>
    <g transform="matrix(0.998088 0 0 1.00001 102337 -13129.8)">
     <text x="141000" y="117500"  class="fil0 fnt1">75</text>
    </g>
    <g transform="matrix(0.998088 0 0 1.00001 93980.5 -13119.6)">
     <text x="141000" y="117500"  class="fil0 fnt1">105</text>
    </g>
    <g transform="matrix(0.998088 0 0 1.00001 90012.4 -11716.8)">
     <text x="141000" y="117500"  class="fil0 fnt1">120</text>
    </g>
    <g transform="matrix(0.998088 0 0 1.00001 87356.3 -9535.16)">
     <text x="141000" y="117500"  class="fil0 fnt1">135</text>
    </g>
    <g transform="matrix(0.998088 0 0 1.00001 85180.6 -6261.6)">
     <text x="141000" y="117500"  class="fil0 fnt1">150</text>
    </g>
    <g transform="matrix(0.998088 0 0 1.00001 83615.6 -2832.59)">
     <text x="141000" y="117500"  class="fil0 fnt1">165</text>
    </g>
   </a>
  </g>
  <circle class="fil1 str5" cx="129261" cy="70508" r="37600"/>
  <g>
   <a xlink:href="../50Etdrs_R/Axanivis_50Etdrs_R_LgMarOneLine.svg">
    <rect class="fil3" x="19986" y="75207" width="16450" height="37600"/>
    <rect class="fil2 str2" transform="matrix(-3.5733E-013 4.49734 -2.95137 -2.34497E-013 36436.2 75207.5)" width="8361" height="5574"/>
    <g id="_912091008">
     <g>
      <path class="fil4" d="M28681 81710l0 24595 -940 0 0 -24595 940 0zm1983 0l0 470 -4906 0 0 -940 4906 0 0 470z"/>
     </g>
    </g>
   </a>
  </g>
  <g>
   <a xlink:href="../Axanivis_50Etdrs_Index.svg">
    <rect class="fil2 str2" transform="matrix(-3.5733E-013 4.49734 -2.95137 -2.34497E-013 17401.2 75207.5)" width="8361" height="5574"/>
    <g>
     <g>
      <path class="fil4" d="M9646 85789l0 20516 -940 0 0 -20516 940 0zm-2927 388l2457 -4467 2457 4467 -4914 0z"/>
     </g>
    </g>
   </a>
  </g>
  <path class="fil5 str6" d="M121441 62915c-1045,1118 -1545,2381 -1530,3852 26,828 179,1640 550,2426 368,729 805,1337 1340,1775 607,510 1265,883 1970,1132 559,168 1183,292 1898,263l7327 15c576,-37 1039,198 1415,648 275,357 441,758 454,1222 -46,546 -211,994 -535,1309 -348,382 -795,565 -1334,561l-7477 0c-436,12 -853,-119 -1241,-471 -377,-336 -573,-812 -629,-1399 -1246,0 -2492,0 -3738,0 14,900 181,1679 507,2334 316,652 678,1203 1108,1606 595,582 1198,999 1811,1230 711,284 1437,441 2182,440 2492,0 4984,0 7477,0 803,4 1552,-155 2256,-472 669,-322 1288,-733 1824,-1290 457,-513 846,-1132 1166,-1862 228,-599 347,-1260 362,-1986 -32,-602 -138,-1218 -310,-1845 -184,-634 -571,-1266 -1118,-1895 -370,-403 -815,-769 -1337,-1097 -611,-367 -1225,-589 -1843,-685l-4739 -89c-1246,0 -2492,0 -3738,0 -512,32 -949,-157 -1318,-543 -332,-228 -508,-682 -552,-1327 -4,-513 136,-957 514,-1287 390,-324 826,-550 1356,-583l7477 0c675,37 1199,295 1578,840 95,188 176,378 234,569l57 461 3739 0c98,-1212 -702,-2903 -1485,-3778 -954,-1165 -2387,-1832 -4123,-1832l-7477 0c-1657,83 -2772,549 -4078,1758z"/>
  <g>
   <a xlink:href="Axanivis_50Etdrs_L_LgMar10_K.svg">
    <rect class="fil3" x="90251" y="116567" width="37600" height="16450"/>
    <rect class="fil2 str2" x="90251" y="116568" width="37600" height="16450"/>
    <g>
     <g>
      <path class="fil4" d="M102207 124323l19142 0 0 940 -19142 0 0 -940zm-5454 470l5755 -2879 0 5755 -5755 -2876z"/>
     </g>
    </g>
   </a>
  </g>
 </g>
</svg>
