<?xml version="1.0" encoding="UTF-8"?>
<!DOCTYPE svg PUBLIC "-//W3C//DTD SVG 1.1//EN" "http://www.w3.org/Graphics/SVG/1.1/DTD/svg11.dtd">
<!-- Creator: CorelDRAW X6 -->
<svg xmlns="http://www.w3.org/2000/svg" xml:space="preserve" width="282mm" height="235mm" version="1.1" style="shape-rendering:geometricPrecision; text-rendering:geometricPrecision; image-rendering:optimizeQuality; fill-rule:evenodd; clip-rule:evenodd"
viewBox="0 0 282000 235000"
 xmlns:xlink="http://www.w3.org/1999/xlink">
 <defs>
  <style type="text/css">
   <![CDATA[
    .str6 {stroke:#2B2A29;stroke-width:94}
    .str0 {stroke:navy;stroke-width:165.816;stroke-linecap:round;stroke-linejoin:round}
    .str1 {stroke:#191497;stroke-width:165.816;stroke-linecap:round;stroke-linejoin:round}
    .str5 {stroke:#E31E24;stroke-width:470}
    .str2 {stroke:#FEFEFE;stroke-width:94;stroke-dasharray:94.000000 282.000001}
    .str3 {stroke:#2B2A29;stroke-width:940}
    .str4 {stroke:black;stroke-width:1175}
    .fil1 {fill:none}
    .fil6 {fill:#2B2A29}
    .fil2 {fill:#EBECEC}
    .fil5 {fill:#FEFEFE}
    .fil0 {fill:black}
    .fil4 {fill:#2B2A29;fill-rule:nonzero}
    .fil3 {fill:black;fill-opacity:0.000000}
    .fnt1 {font-weight:normal;font-size:1649.51px;font-family:'Arial'}
    .fnt0 {font-weight:normal;font-size:5803.18px;font-family:'Arial'}
   ]]>
  </style>
 </defs>
 <g id="Letters">
  <metadata id="CorelCorpID_0Corel-Layer"/>
  <polygon class="fil0" points="10858032,167442 10863939,167442 10863939,166260 10859735,166260 10863939,162715 10863939,161534 10858032,161534 10858032,162715 10862184,162715 10858032,166260 "/>
  <polygon class="fil0" points="10858032,167442 10863939,167442 10863939,166260 10859735,166260 10863939,162715 10863939,161534 10858032,161534 10858032,162715 10862184,162715 10858032,166260 "/>
  <polygon class="fil0" points="10858032,167442 10863939,167442 10863939,166260 10859735,166260 10863939,162715 10863939,161534 10858032,161534 10858032,162715 10862184,162715 10858032,166260 "/>
  <polygon class="fil0" points="10858032,167442 10863939,167442 10863939,166260 10859735,166260 10863939,162715 10863939,161534 10858032,161534 10858032,162715 10862184,162715 10858032,166260 "/>
 </g>
 <g id="Buttons">
  <metadata id="CorelCorpID_1Corel-Layer"/>
  <g transform="matrix(0.998541 0 0 1.00001 -109489 -101342)">
   <text x="141000" y="117500"  class="fil0 fnt0">1</text>
   <text x="145840" y="117500"  class="fil0 fnt0">25</text>
   <text x="144228" y="117500"  class="fil0 fnt0">.</text>
  </g>
  <g transform="matrix(0.998088 0 0 1.00001 -111426 -108392)">
   <text x="141000" y="117500"  class="fil0 fnt0">-0</text>
   <text x="147772" y="117500"  class="fil0 fnt0">1</text>
   <text x="146160" y="117500"  class="fil0 fnt0">.</text>
  </g>
 </g>
 <g id="Scale">
  <metadata id="CorelCorpID_2Corel-Layer"/>
  <polyline class="fil1 str0" points="11,4708 11,8 4711,8 "/>
  <polyline class="fil1 str0" points="4711,133958 11,133958 11,129258 "/>
  <polyline class="fil1 str0" points="258511,129257 258511,133958 253811,133958 "/>
  <polyline class="fil1 str1" points="253811,8 258511,8 258511,4708 "/>
  <polygon class="fil0" points="10858032,167442 10863939,167442 10863939,166260 10859735,166260 10863939,162715 10863939,161534 10858032,161534 10858032,162715 10862184,162715 10858032,166260 "/>
  <polygon class="fil0" points="10858032,167442 10863939,167442 10863939,166260 10859735,166260 10863939,162715 10863939,161534 10858032,161534 10858032,162715 10862184,162715 10858032,166260 "/>
  <polygon class="fil0" points="10858032,167442 10863939,167442 10863939,166260 10859735,166260 10863939,162715 10863939,161534 10858032,161534 10858032,162715 10862184,162715 10858032,166260 "/>
  <polygon class="fil0" points="10858032,167442 10863939,167442 10863939,166260 10859735,166260 10863939,162715 10863939,161534 10858032,161534 10858032,162715 10862184,162715 10858032,166260 "/>
  <polygon class="fil0" points="10858032,167442 10863939,167442 10863939,166260 10859735,166260 10863939,162715 10863939,161534 10858032,161534 10858032,162715 10862184,162715 10858032,166260 "/>
  <polygon class="fil0" points="10858032,167442 10863939,167442 10863939,166260 10859735,166260 10863939,162715 10863939,161534 10858032,161534 10858032,162715 10862184,162715 10858032,166260 "/>
  <polygon class="fil0" points="10858032,167442 10863939,167442 10863939,166260 10859735,166260 10863939,162715 10863939,161534 10858032,161534 10858032,162715 10862184,162715 10858032,166260 "/>
  <polygon class="fil0" points="10858032,167442 10863939,167442 10863939,166260 10859735,166260 10863939,162715 10863939,161534 10858032,161534 10858032,162715 10862184,162715 10858032,166260 "/>
  <g transform="matrix(1.00135 0 0 0.999994 -136927 -101346)">
   <text x="141000" y="117500"  class="fil0 fnt0">Decimal</text>
  </g>
  <g transform="matrix(1.00092 0 0 0.999994 -136842 -108974)">
   <text x="141000" y="117500"  class="fil0 fnt0">LogMar</text>
  </g>
 </g>
 <g id="Button2">
  <metadata id="CorelCorpID_3Corel-Layer"/>
  <g id="_622324928">
   <a xlink:href="Axanivis_50Etdrs_L_LgMarOneLine.svg">
    <rect class="fil2 str2" x="951" y="116568" width="37600" height="16450"/>
    <g>
     <line class="fil1 str3" x1="32049" y1="124793" x2="7453" y2= "124793" />
    </g>
   </a>
  </g>
 </g>
 <g id="DialChart">
  <metadata id="CorelCorpID_4Corel-Layer"/>
  <g id="_626759040">
   <a xlink:href="Axanivis_50Etdrs_L_LgMar_2-02_H.svg">
    <rect class="fil3" x="130671" y="116567" width="37600" height="16450"/>
    <rect class="fil2 str2" x="130671" y="116568" width="37600" height="16450"/>
    <g>
     <g>
      <path class="fil4" d="M156315 125262l-19142 0 0 -940 19142 0 0 940zm5454 -470l-5755 2879 0 -5755 5755 2876z"/>
     </g>
    </g>
   </a>
  </g>
  <g>
   <a xlink:href="Axanivis_50Etdrs_L_LgMar_3-01_C_Dial.svg">
    <rect class="fil3" x="219971" y="100117" width="37600" height="32900"/>
    <rect class="fil2" x="219971" y="100118" width="37600" height="32900"/>
    <g id="_626760000">
     <line class="fil1 str4" x1="227245" y1="117670" x2="252183" y2= "117670" />
    </g>
    <g id="_626757216">
     <line class="fil1 str4" x1="239714" y1="130139" x2="239714" y2= "105201" />
    </g>
    <g id="_626757952">
     <line class="fil1 str4" x1="245949" y1="128469" x2="233480" y2= "106872" />
    </g>
    <g id="_625008832">
     <line class="fil1 str4" x1="250513" y1="123905" x2="228916" y2= "111436" />
    </g>
    <g id="_625008704">
     <line class="fil1 str4" x1="250513" y1="111436" x2="228916" y2= "123905" />
    </g>
    <g id="_625008352">
     <line class="fil1 str4" x1="245949" y1="106872" x2="233480" y2= "128469" />
    </g>
    <g id="_625008640">
     <line class="fil1 str4" x1="242942" y1="105626" x2="236487" y2= "129715" />
    </g>
    <g id="_625008896">
     <line class="fil1 str4" x1="236487" y1="105626" x2="242942" y2= "129715" />
    </g>
    <g id="_906206288">
     <line class="fil1 str4" x1="230897" y1="108853" x2="248531" y2= "126487" />
    </g>
    <g id="_906204912">
     <line class="fil1 str4" x1="227670" y1="114443" x2="251759" y2= "120898" />
    </g>
    <g id="_906203600">
     <line class="fil1 str4" x1="227670" y1="120898" x2="251759" y2= "114443" />
    </g>
    <g id="_906203184">
     <line class="fil1 str4" x1="230897" y1="126487" x2="248531" y2= "108853" />
    </g>
    <g transform="matrix(0.998088 0 0 1.00001 98107.6 -13665.1)">
     <text x="141000" y="117500"  class="fil0 fnt1">90</text>
    </g>
    <g transform="matrix(0.998088 0 0 1.00001 113372 591.011)">
     <text x="141000" y="117500"  class="fil0 fnt1">0</text>
    </g>
    <g transform="matrix(0.998088 0 0 1.00001 82656.7 683.446)">
     <text x="141000" y="117500"  class="fil0 fnt1">180</text>
    </g>
    <g transform="matrix(0.998088 0 0 1.00001 112129 -2832.59)">
     <text x="141000" y="117500"  class="fil0 fnt1">15</text>
    </g>
    <g transform="matrix(0.998088 0 0 1.00001 110577 -6262.01)">
     <text x="141000" y="117500"  class="fil0 fnt1">30</text>
    </g>
    <g transform="matrix(0.998088 0 0 1.00001 108232 -9537.22)">
     <text x="141000" y="117500"  class="fil0 fnt1">45</text>
    </g>
    <g transform="matrix(0.998088 0 0 1.00001 105745 -11716.8)">
     <text x="141000" y="117500"  class="fil0 fnt1">60</text>
    </g>
    <g transform="matrix(0.998088 0 0 1.00001 102337 -13129.8)">
     <text x="141000" y="117500"  class="fil0 fnt1">75</text>
    </g>
    <g transform="matrix(0.998088 0 0 1.00001 93980.5 -13119.6)">
     <text x="141000" y="117500"  class="fil0 fnt1">105</text>
    </g>
    <g transform="matrix(0.998088 0 0 1.00001 90012.4 -11716.8)">
     <text x="141000" y="117500"  class="fil0 fnt1">120</text>
    </g>
    <g transform="matrix(0.998088 0 0 1.00001 87356.3 -9535.16)">
     <text x="141000" y="117500"  class="fil0 fnt1">135</text>
    </g>
    <g transform="matrix(0.998088 0 0 1.00001 85180.6 -6261.6)">
     <text x="141000" y="117500"  class="fil0 fnt1">150</text>
    </g>
    <g transform="matrix(0.998088 0 0 1.00001 83615.6 -2832.59)">
     <text x="141000" y="117500"  class="fil0 fnt1">165</text>
    </g>
   </a>
  </g>
  <circle class="fil1 str5" cx="129261" cy="70508" r="37600"/>
  <g>
   <a xlink:href="../50Etdrs_R/Axanivis_50Etdrs_R_LgMarOneLine.svg">
    <rect class="fil3" x="19986" y="75207" width="16450" height="37600"/>
    <rect class="fil2 str2" transform="matrix(-3.5733E-013 4.49734 -2.95137 -2.34497E-013 36436.2 75207.5)" width="8361" height="5574"/>
    <g id="_906194352">
     <g>
      <path class="fil4" d="M28681 81710l0 24595 -940 0 0 -24595 940 0zm1983 0l0 470 -4906 0 0 -940 4906 0 0 470z"/>
     </g>
    </g>
   </a>
  </g>
  <g>
   <a xlink:href="../Axanivis_50Etdrs_Index.svg">
    <rect class="fil2 str2" transform="matrix(-3.5733E-013 4.49734 -2.95137 -2.34497E-013 17401.2 75207.5)" width="8361" height="5574"/>
    <g>
     <g>
      <path class="fil4" d="M9646 85789l0 20516 -940 0 0 -20516 940 0zm-2927 388l2457 -4467 2457 4467 -4914 0z"/>
     </g>
    </g>
   </a>
  </g>
  <g>
   <a xlink:href="Axanivis_50Etdrs_L_LgMar00_K.svg">
    <rect class="fil3" x="90251" y="116567" width="37600" height="16450"/>
    <rect class="fil2 str2" x="90251" y="116568" width="37600" height="16450"/>
    <g>
     <g>
      <path class="fil4" d="M102207 124323l19142 0 0 940 -19142 0 0 -940zm-5454 470l5755 -2879 0 5755 -5755 -2876z"/>
     </g>
    </g>
   </a>
  </g>
  <circle class="fil5" cx="129261" cy="70508" r="1772"/>
  <g>
   <path class="fil6 str6" d="M129261 71440c181,-6 348,-43 489,-138 31,-22 65,-43 96,-68 40,-31 74,-67 109,-103 45,-45 77,-97 114,-157 22,-38 46,-78 59,-120 8,-27 20,-54 28,-81 8,-26 12,-52 19,-79 -128,0 -257,0 -386,0 -7,16 -13,34 -20,50 -20,41 -42,77 -69,111 -36,47 -84,84 -131,120 -96,60 -198,93 -308,92 -77,-4 -157,-16 -229,-49 -35,-16 -70,-35 -102,-60 -19,-13 -35,-30 -54,-44 -68,-63 -123,-148 -152,-249 -14,-49 -16,-101 -22,-157 -3,-99 22,-177 57,-248 20,-40 44,-76 72,-110 14,-17 28,-35 47,-50 61,-62 127,-95 198,-121 37,-13 72,-21 113,-26 22,-3 48,-6 72,-5 80,-3 146,17 205,39 30,11 56,24 81,39 13,8 28,14 39,26 96,67 163,157 203,269 129,0 258,0 386,0 -5,-22 -10,-44 -16,-67l-20 -63c-17,-50 -40,-100 -70,-150 -75,-131 -178,-241 -315,-326 -20,-15 -42,-25 -63,-35 -37,-20 -74,-36 -112,-50 -101,-36 -205,-55 -318,-55 -21,-1 -41,1 -63,2 -8,0 -16,1 -24,2 -37,4 -75,9 -113,17 -86,20 -175,47 -269,106 -92,49 -167,118 -229,187 -43,49 -81,93 -109,152 -38,59 -63,125 -84,190 -27,88 -44,178 -41,277 1,120 23,228 57,324 13,34 27,66 43,97 8,16 13,31 25,45 78,130 189,248 338,340 85,38 168,80 257,102 68,17 142,18 212,24z"/>
   <g>
    <line class="fil1" x1="130194" y1="70694" x2="130194" y2= "70321" />
   </g>
  </g>
 </g>
</svg>
