<?xml version="1.0" encoding="UTF-8" standalone="no"?>
<svg
   xmlns:dc="http://purl.org/dc/elements/1.1/"
   xmlns:cc="http://creativecommons.org/ns#"
   xmlns:rdf="http://www.w3.org/1999/02/22-rdf-syntax-ns#"
   xmlns:svg="http://www.w3.org/2000/svg"
   xmlns="http://www.w3.org/2000/svg"
   xmlns:sodipodi="http://sodipodi.sourceforge.net/DTD/sodipodi-0.dtd"
   xmlns:inkscape="http://www.inkscape.org/namespaces/inkscape"
   version="1.1"
   width="850.39368"
   height="850.39368"
   id="svg3408"
   inkscape:version="0.91 r13725"
   viewBox="0 0 850.39368 850.39368"
   sodipodi:docname="sloan_r.svg">
  <metadata
     id="metadata3420">
    <rdf:RDF>
      <cc:Work
         rdf:about="">
        <dc:format>image/svg+xml</dc:format>
        <dc:type
           rdf:resource="http://purl.org/dc/dcmitype/StillImage" />
        <dc:title></dc:title>
      </cc:Work>
    </rdf:RDF>
  </metadata>
  <defs
     id="defs3418" />
  <sodipodi:namedview
     pagecolor="#ffffff"
     bordercolor="#666666"
     borderopacity="1"
     objecttolerance="10"
     gridtolerance="10"
     guidetolerance="10"
     inkscape:pageopacity="0"
     inkscape:pageshadow="2"
     inkscape:window-width="640"
     inkscape:window-height="480"
     id="namedview3416"
     showgrid="false"
     inkscape:zoom="0.27751853"
     inkscape:cx="425.19684"
     inkscape:cy="425.19684"
     inkscape:window-x="0"
     inkscape:window-y="0"
     inkscape:window-maximized="0"
     inkscape:current-layer="svg3408" />
  <g
     id="g3410">
    <path
       d="m 718.8576,129.4129 c 43.5257,46.7898 60.317,96.6546 60.1042,148.4436 -1.0778,34.1481 -7.4053,65.1078 -20.5464,91.9278 -19.5262,33.2269 -36.3342,55.1007 -50.8014,67.2342 -20.8508,19.9834 -45.7789,34.2391 -74.6844,42.906 l 146.0322,293.995 -141.7323,0 -141.7323,-283.4646 -283.4646,0 0,283.4646 -141.7323,0 0,-708.6614 496.063,0 c 71.6746,4.4121 120.1298,27.7325 152.4943,64.1548 z"
       style="fill:#151616;fill-rule:evenodd;stroke:#151616;stroke-width:0.21600001;stroke-linecap:butt;stroke-linejoin:miter;stroke-dasharray:none"
       id="path3412"
       inkscape:connector-curvature="0" />
    <path
       d="m 566.3633,206.9904 -354.3307,0 0,141.7322 c 118.2107,0 236.4217,0 354.6323,0 42.7561,-4.0235 67.2965,-27.4731 70.5646,-70.8661 -1.0673,-39.2964 -24.8154,-68.6049 -70.8662,-70.8661 z"
       style="fill:#ffffff;fill-rule:evenodd;stroke:#151616;stroke-width:0.56690001;stroke-linecap:butt;stroke-linejoin:miter;stroke-dasharray:none"
       id="path3414"
       inkscape:connector-curvature="0" />
  </g>
</svg>
