<?xml version="1.0" encoding="UTF-8" standalone="no"?>
<svg
   xmlns:dc="http://purl.org/dc/elements/1.1/"
   xmlns:cc="http://creativecommons.org/ns#"
   xmlns:rdf="http://www.w3.org/1999/02/22-rdf-syntax-ns#"
   xmlns:svg="http://www.w3.org/2000/svg"
   xmlns="http://www.w3.org/2000/svg"
   xmlns:sodipodi="http://sodipodi.sourceforge.net/DTD/sodipodi-0.dtd"
   xmlns:inkscape="http://www.inkscape.org/namespaces/inkscape"
   version="1.1"
   width="850.39368"
   height="850.39368"
   id="svg3422"
   inkscape:version="0.91 r13725"
   viewBox="0 0 850.39368 850.39368"
   sodipodi:docname="sloan_s.svg">
  <metadata
     id="metadata3446">
    <rdf:RDF>
      <cc:Work
         rdf:about="">
        <dc:format>image/svg+xml</dc:format>
        <dc:type
           rdf:resource="http://purl.org/dc/dcmitype/StillImage" />
        <dc:title></dc:title>
      </cc:Work>
    </rdf:RDF>
  </metadata>
  <defs
     id="defs3444" />
  <sodipodi:namedview
     pagecolor="#ffffff"
     bordercolor="#666666"
     borderopacity="1"
     objecttolerance="10"
     gridtolerance="10"
     guidetolerance="10"
     inkscape:pageopacity="0"
     inkscape:pageshadow="2"
     inkscape:window-width="640"
     inkscape:window-height="480"
     id="namedview3442"
     showgrid="false"
     inkscape:zoom="0.27751853"
     inkscape:cx="425.19684"
     inkscape:cy="425.19684"
     inkscape:window-x="0"
     inkscape:window-y="0"
     inkscape:window-maximized="0"
     inkscape:current-layer="svg3422" />
  <path
     d="m 128.4617,131.8941 c -39.6118,42.3545 -58.5606,90.1982 -57.9985,145.9631 0.9798,31.3578 6.7881,62.1374 20.8384,91.9274 13.9528,27.5974 30.5077,50.6568 50.778,67.2338 23.0031,19.3492 47.9535,33.4727 74.6501,42.9058 21.2073,6.3708 44.8538,11.0664 71.9128,9.9754 l 277.6558,0.555 c 21.8281,-1.4046 39.3999,7.5047 53.6139,24.551 10.4273,13.5277 16.7154,28.7426 17.2197,46.3148 -1.7318,20.7084 -7.9929,37.6561 -20.2593,49.6171 -13.192,14.4813 -30.1229,21.4171 -50.5743,21.2487 l -283.3344,0 c -16.5008,0.4419 -32.297,-4.5213 -47.0043,-17.8503 -14.2806,-12.7156 -21.7331,-30.771 -23.8292,-53.0155 -47.2225,0 -94.4447,0 -141.6672,0 0.5216,34.1026 6.8652,63.6372 19.2132,88.4623 11.9873,24.6931 25.7032,45.5925 41.9989,60.8312 22.5316,22.0875 45.3961,37.8616 68.6295,46.6204 26.9273,10.7619 54.4342,16.7033 82.6591,16.6835 94.4447,0 188.8897,0 283.3344,0 30.429,0.1553 58.8383,-5.8861 85.4899,-17.9047 25.3766,-12.179 48.8276,-27.751 69.1367,-48.8614 17.3018,-19.4535 32.0658,-42.9146 44.1741,-70.5693 8.6451,-22.6957 13.1342,-47.7426 13.7001,-75.262 -1.2048,-22.8145 -5.2193,-46.1288 -11.7493,-69.8893 -6.9505,-24.051 -21.6355,-47.99 -42.3602,-71.8423 -14.0163,-15.2713 -30.8619,-29.1383 -50.6432,-41.5489 -23.1527,-13.9249 -46.4425,-22.3213 -69.8504,-25.946 L 424.6311,348.723 c -47.2225,0 -94.4447,0 -141.6672,0 -19.3936,1.1863 -35.9384,-5.9663 -49.9277,-20.5976 -12.5863,-8.6516 -19.2446,-25.8547 -20.9058,-50.2682 -0.1785,-19.4544 5.134,-36.2799 19.4613,-48.7903 14.7734,-12.2535 31.3167,-20.8212 51.3722,-22.0755 l 283.3344,0 c 25.6066,1.3785 45.457,11.1735 59.7935,31.8094 3.6235,7.1359 6.6708,14.3217 8.8697,21.5795 l 2.1704,17.4766 141.6672,3e-4 C 782.5343,231.9367 752.1999,167.8343 722.5538,134.7029 686.4054,90.5373 632.0993,65.2516 566.2983,65.2598 l -283.3344,0 c -62.7894,3.1595 -105.0413,20.7997 -154.5022,66.6343 z"
     style="fill:#151616;fill-rule:evenodd;stroke:#151616;stroke-width:0.21600001;stroke-linecap:butt;stroke-linejoin:miter;stroke-dasharray:none"
     id="path3424"
     inkscape:connector-curvature="0" />
  <path
     d="M 282.8988,65.2581 A 212.5984,212.5984 0 0 1 495.4972,277.8565 212.5984,212.5984 0 1 1 282.8988,65.2581 Z"
     style="fill:none;stroke:#151616;stroke-width:0.56690001;stroke-linecap:butt;stroke-linejoin:miter;stroke-dasharray:none"
     id="path3426"
     inkscape:connector-curvature="0" />
  <path
     d="M 566.3633,65.2581 A 212.5984,212.5984 0 0 1 778.9618,277.8565 212.5984,212.5984 0 1 1 566.3633,65.2581 Z"
     style="fill:none;stroke:#151616;stroke-width:0.56690001;stroke-linecap:butt;stroke-linejoin:miter;stroke-dasharray:none"
     id="path3428"
     inkscape:connector-curvature="0" />
  <path
     d="M 566.3633,348.7226 A 212.5984,212.5984 0 0 1 778.9618,561.3211 212.5984,212.5984 0 1 1 566.3633,348.7226 Z"
     style="fill:none;stroke:#151616;stroke-width:0.56690001;stroke-linecap:butt;stroke-linejoin:miter;stroke-dasharray:none"
     id="path3430"
     inkscape:connector-curvature="0" />
  <path
     d="M 282.8988,348.7226 A 212.5984,212.5984 0 0 1 495.4972,561.3211 212.5984,212.5984 0 1 1 282.8988,348.7226 Z"
     style="fill:none;stroke:#151616;stroke-width:0.56690001;stroke-linecap:butt;stroke-linejoin:miter;stroke-dasharray:none"
     id="path3432"
     inkscape:connector-curvature="0" />
  <path
     d="m 566.3634,206.9903 a 70.8661,70.8661 0 0 1 70.8662,70.8661 70.8661,70.8661 0 1 1 -70.8662,-70.8661 z"
     style="fill:none;stroke:#151616;stroke-width:0.56690001;stroke-linecap:butt;stroke-linejoin:miter;stroke-dasharray:none"
     id="path3434"
     inkscape:connector-curvature="0" />
  <path
     d="m 282.8989,206.9903 a 70.8661,70.8661 0 0 1 70.8661,70.8661 70.8661,70.8661 0 1 1 -70.8661,-70.8661 z"
     style="fill:none;stroke:#151616;stroke-width:0.56690001;stroke-linecap:butt;stroke-linejoin:miter;stroke-dasharray:none"
     id="path3436"
     inkscape:connector-curvature="0" />
  <path
     d="M 282.8989,490.4548 A 70.8661,70.8661 0 0 1 353.765,561.321 70.8661,70.8661 0 1 1 282.8989,490.4548 Z"
     style="fill:none;stroke:#151616;stroke-width:0.56690001;stroke-linecap:butt;stroke-linejoin:miter;stroke-dasharray:none"
     id="path3438"
     inkscape:connector-curvature="0" />
  <path
     d="m 566.3634,490.4548 a 70.8661,70.8661 0 0 1 70.8662,70.8662 70.8661,70.8661 0 1 1 -70.8662,-70.8662 z"
     style="fill:none;stroke:#151616;stroke-width:0.56690001;stroke-linecap:butt;stroke-linejoin:miter;stroke-dasharray:none"
     id="path3440"
     inkscape:connector-curvature="0" />
</svg>
