<?xml version="1.0" encoding="UTF-8"?>
<!DOCTYPE svg PUBLIC "-//W3C//DTD SVG 1.1//EN" "http://www.w3.org/Graphics/SVG/1.1/DTD/svg11.dtd">
<!-- Creator: CorelDRAW X6 -->
<svg xmlns="http://www.w3.org/2000/svg" xml:space="preserve" width="282mm" height="235mm" version="1.1" style="shape-rendering:geometricPrecision; text-rendering:geometricPrecision; image-rendering:optimizeQuality; fill-rule:evenodd; clip-rule:evenodd"
viewBox="0 0 282000 235000"
 xmlns:xlink="http://www.w3.org/1999/xlink">
 <defs>
  <style type="text/css">
   <![CDATA[
    .str0 {stroke:navy;stroke-width:165.816;stroke-linecap:round;stroke-linejoin:round}
    .str1 {stroke:#191497;stroke-width:165.816;stroke-linecap:round;stroke-linejoin:round}
    .str2 {stroke:#FEFEFE;stroke-width:94;stroke-dasharray:94.000000 282.000001}
    .str3 {stroke:#2B2A29;stroke-width:470}
    .fil0 {fill:none}
    .fil3 {fill:#EBECEC}
    .fil1 {fill:black}
    .fil4 {fill:#2B2A29;fill-rule:nonzero}
    .fil2 {fill:black;fill-opacity:0.000000}
    .fnt0 {font-weight:normal;font-size:5803.18px;font-family:'Arial'}
    .fnt1 {font-weight:normal;font-size:6632.22px;font-family:'Arial'}
   ]]>
  </style>
 </defs>
 <g id="Scale">
  <metadata id="CorelCorpID_0Corel-Layer"/>
  <polyline class="fil0 str0" points="-2,4685 -2,-15 4698,-15 "/>
  <polyline class="fil0 str0" points="4698,133935 -2,133935 -2,129235 "/>
  <polyline class="fil0 str0" points="258498,129235 258498,133935 253798,133935 "/>
  <g transform="matrix(1.00092 0 0 0.999994 -140615 -112419)">
   <text x="141000" y="117500"  class="fil1 fnt0">LogMar</text>
  </g>
  <polyline class="fil0 str1" points="253798,-15 258498,-15 258498,4685 "/>
  <g transform="matrix(1.00095 0 0 0.999994 102601 -110769)">
   <text x="141000" y="117500"  class="fil1 fnt0">Dec</text>
  </g>
  <a xlink:href="../Axanivis_50TumblingE_Index.svg">
   <rect class="fil2" x="938" y="109494" width="14100" height="23500"/>
   <rect class="fil3 str2" transform="matrix(7.44438E-014 2.81084 -2.52975 6.69993E-014 15038.2 109495)" width="8361" height="5574"/>
  </a>
  <g id="_921593776">
   <g>
    <path class="fil4" d="M8223 116286l0 12645 -470 0 0 -12645 470 0zm-235 -2727l1439 2877 -2877 0 1438 -2877z"/>
   </g>
  </g>
  <a xlink:href="Axanivis_50TumblingE1Full_T.svg">
   <rect class="fil2" x="243458" y="109494" width="14100" height="23500"/>
   <rect class="fil3 str2" transform="matrix(9.93789E-014 2.81084 -2.52975 5.01885E-014 257558 109495)" width="8361" height="5574"/>
  </a>
  <g>
   <g>
    <path class="fil4" d="M250743 116286l0 12645 -470 0 0 -12645 470 0zm-235 -2727l1439 2877 -2877 0 1438 -2877z"/>
   </g>
  </g>
  <g transform="matrix(0.998088 0 0 1.00001 -135840 -50721.1)">
   <text x="141000" y="117500"  class="fil1 fnt1">0.3</text>
  </g>
  <g transform="matrix(0.998088 0 0 1.00001 -135840 -43266.9)">
   <text x="141000" y="117500"  class="fil1 fnt1">0.2</text>
  </g>
  <g transform="matrix(0.998088 0 0 1.00001 -135840 -37344.9)">
   <text x="141000" y="117500"  class="fil1 fnt1">0.1</text>
  </g>
  <g transform="matrix(0.998088 0 0 1.00001 -122607 -32644.9)">
   <text x="141000" y="117500"  class="fil1 fnt1">0.0</text>
  </g>
  <g transform="matrix(0.998651 0 0 1.00001 -99841.9 -25948.5)">
   <text x="141000" y="117500"  class="fil1 fnt1">-0.</text>
   <text x="148740" y="117500"  class="fil1 fnt1">2</text>
  </g>
  <g transform="matrix(0.998651 0 0 1.00001 -112026 -28914.2)">
   <text x="141000" y="117500"  class="fil1 fnt1">-0.</text>
   <text x="148740" y="117500"  class="fil1 fnt1">1</text>
  </g>
  <g transform="matrix(0.998651 0 0 1.00001 -88549.5 -23595.5)">
   <text x="141000" y="117500"  class="fil1 fnt1">-0.3</text>
  </g>
  <g transform="matrix(0.998088 0 0 1.00001 103860 -50721.1)">
   <text x="141000" y="117500"  class="fil1 fnt1">0.5</text>
  </g>
  <g transform="matrix(0.997612 0 0 1.00001 103927 -43266.9)">
   <text x="141000" y="117500"  class="fil1 fnt1">0.63</text>
  </g>
  <g transform="matrix(0.998088 0 0 1.00001 103860 -37344.9)">
   <text x="141000" y="117500"  class="fil1 fnt1">0.8</text>
  </g>
  <g transform="matrix(0.998088 0 0 1.00001 88382.8 -32644.9)">
   <text x="141000" y="117500"  class="fil1 fnt1">1.0</text>
  </g>
  <g transform="matrix(0.997612 0 0 1.00001 75290.3 -28914)">
   <text x="141000" y="117500"  class="fil1 fnt1">1.25</text>
  </g>
  <g transform="matrix(0.998088 0 0 1.00001 64882.8 -25948.3)">
   <text x="141000" y="117500"  class="fil1 fnt1">1.6</text>
  </g>
  <g transform="matrix(0.998088 0 0 1.00001 53190.2 -23595.5)">
   <text x="141000" y="117500"  class="fil1 fnt1">2.0</text>
  </g>
  <g>
   <line class="fil0 str3" x1="150876" y1="82089" x2="226076" y2= "82173" />
  </g>
  <g>
   <line class="fil0 str3" x1="150876" y1="82850" x2="226076" y2= "82935" />
  </g>
  <g>
   <line class="fil0 str3" x1="30548" y1="82275" x2="105748" y2= "82360" />
  </g>
  <g>
   <line class="fil0 str3" x1="30548" y1="83037" x2="105748" y2= "83121" />
  </g>
  <g transform="matrix(0.998088 0 0 1.00001 -135420 -72527.9)">
   <text x="141000" y="117500"  class="fil1 fnt1">0.5</text>
  </g>
  <g transform="matrix(0.998088 0 0 1.00001 -135392 -60712)">
   <text x="141000" y="117500"  class="fil1 fnt1">0.4</text>
  </g>
  <g transform="matrix(0.997612 0 0 1.00001 97851.6 -72529.5)">
   <text x="141000" y="117500"  class="fil1 fnt1">0.32</text>
  </g>
  <g transform="matrix(0.998088 0 0 1.00001 99607.8 -60712)">
   <text x="141000" y="117500"  class="fil1 fnt1">0.4</text>
  </g>
  <g>
   <line class="fil0 str3" x1="20962" y1="41481" x2="79712" y2= "41569" />
  </g>
  <g>
   <line class="fil0 str3" x1="20781" y1="43502" x2="81881" y2= "43590" />
  </g>
  <g>
   <line class="fil0 str3" x1="234942" y1="41481" x2="176192" y2= "41569" />
  </g>
  <g>
   <line class="fil0 str3" x1="235123" y1="43502" x2="174023" y2= "43590" />
  </g>
  <g>
   <line class="fil0" x1="98267" y1="41109" x2="96782" y2= "41109" />
  </g>
  <polygon class="fil1" points="101244,46350 101244,38910 93836,38910 93836,40391 99758,40398 99758,41897 93825,41875 93804,43419 99758,43396 99758,44871 93836,44867 93836,46350 "/>
  <polygon class="fil0" points="101244,46350 93804,46350 93804,44862 99756,44862 99756,43374 93804,43374 93804,41886 99756,41886 99756,40398 93804,40398 93804,38910 101244,38910 "/>
  <g>
   <line class="fil0" x1="111656" y1="44151" x2="113141" y2= "44151" />
  </g>
  <polygon class="fil1" points="108679,38910 108679,46350 116087,46350 116087,44868 110165,44861 110165,43363 116098,43384 116119,41841 110165,41863 110165,40388 116087,40392 116087,38910 "/>
  <polygon class="fil0" points="108679,38910 116119,38910 116119,40398 110167,40398 110167,41886 116119,41886 116119,43374 110167,43374 110167,44862 116119,44862 116119,46350 108679,46350 "/>
  <g>
   <line class="fil0" x1="128022" y1="41109" x2="126537" y2= "41109" />
  </g>
  <polygon class="fil1" points="130999,46350 130999,38910 123591,38910 123591,40391 129514,40398 129514,41897 123581,41875 123559,43419 129514,43396 129514,44871 123591,44867 123591,46350 "/>
  <polygon class="fil0" points="130999,46350 123559,46350 123559,44862 129511,44862 129511,43374 123559,43374 123559,41886 129511,41886 129511,40398 123559,40398 123559,38910 130999,38910 "/>
  <g>
   <line class="fil0" x1="143681" y1="43373" x2="143681" y2= "41888" />
  </g>
  <polygon class="fil1" points="138439,46350 145880,46350 145880,38941 144398,38941 144391,44864 142893,44864 142914,38931 141371,38910 141393,44864 139918,44864 139922,38941 138439,38941 "/>
  <polygon class="fil0" points="138439,46350 138439,38910 139928,38910 139928,44862 141416,44862 141416,38910 142904,38910 142904,44862 144392,44862 144392,38910 145880,38910 145880,46350 "/>
  <g>
   <line class="fil0" x1="156292" y1="44151" x2="157777" y2= "44151" />
  </g>
  <polygon class="fil1" points="153315,38910 153315,46350 160723,46350 160723,44868 154801,44861 154801,43363 160734,43384 160755,41841 154801,41863 154801,40388 160723,40392 160723,38910 "/>
  <polygon class="fil0" points="153315,38910 160755,38910 160755,40398 154803,40398 154803,41886 160755,41886 160755,43374 154803,43374 154803,44862 160755,44862 160755,46350 153315,46350 "/>
  <g>
   <line class="fil0" x1="104238" y1="53238" x2="103059" y2= "53238" />
  </g>
  <polygon class="fil1" points="106602,57399 106602,51491 100719,51491 100719,52668 105422,52674 105422,53863 100711,53846 100694,55072 105422,55054 105422,56225 100719,56222 100719,57399 "/>
  <polygon class="fil0" points="106602,57399 100694,57399 100694,56218 105420,56218 105420,55036 100694,55036 100694,53855 105420,53855 105420,52673 100694,52673 100694,51491 106602,51491 "/>
  <g>
   <line class="fil0" x1="116671" y1="55035" x2="116671" y2= "53856" />
  </g>
  <polygon class="fil1" points="112510,57399 118417,57399 118417,51517 117241,51517 117235,56220 116046,56220 116063,51508 114837,51491 114855,56220 113684,56220 113687,51517 112510,51517 "/>
  <polygon class="fil0" points="112510,57399 112510,51491 113691,51491 113691,56218 114873,56218 114873,51491 116054,51491 116054,56218 117236,56218 117236,51491 118417,51491 118417,57399 "/>
  <g>
   <line class="fil0" x1="127869" y1="53238" x2="126690" y2= "53238" />
  </g>
  <polygon class="fil1" points="130233,57399 130233,51491 124351,51491 124351,52668 129053,52674 129053,53863 124342,53846 124325,55072 129053,55054 129053,56225 124351,56222 124351,57399 "/>
  <polygon class="fil0" points="130233,57399 124325,57399 124325,56218 129052,56218 129052,55036 124325,55036 124325,53855 129052,53855 129052,52673 124325,52673 124325,51491 130233,51491 "/>
  <g>
   <line class="fil0" x1="137887" y1="53855" x2="137887" y2= "55034" />
  </g>
  <polygon class="fil1" points="142049,51491 136141,51491 136141,57374 137318,57374 137323,52671 138513,52671 138496,57382 139722,57399 139704,52671 140875,52671 140872,57374 142049,57374 "/>
  <polygon class="fil0" points="142049,51491 142049,57399 140868,57399 140868,52673 139686,52673 139686,57399 138504,57399 138504,52673 137323,52673 137323,57399 136141,57399 136141,51491 "/>
  <g>
   <line class="fil0" x1="151501" y1="53238" x2="150322" y2= "53238" />
  </g>
  <polygon class="fil1" points="153865,57399 153865,51491 147982,51491 147982,52668 152685,52674 152685,53863 147974,53846 147957,55072 152685,55054 152685,56225 147982,56222 147982,57399 "/>
  <polygon class="fil0" points="153865,57399 147957,57399 147957,56218 152683,56218 152683,55036 147957,55036 147957,53855 152683,53855 152683,52673 147957,52673 147957,51491 153865,51491 "/>
  <g>
   <line class="fil0" x1="108604" y1="63967" x2="108604" y2= "64903" />
  </g>
  <polygon class="fil1" points="111908,62089 107217,62089 107217,66761 108152,66761 108156,63026 109101,63026 109087,66767 110060,66781 110046,63026 110976,63026 110973,66761 111908,66761 "/>
  <polygon class="fil0" points="111908,62089 111908,66781 110970,66781 110970,63028 110032,63028 110032,66781 109094,66781 109094,63028 108156,63028 108156,66781 107217,66781 107217,62089 "/>
  <g>
   <line class="fil0" x1="118478" y1="65394" x2="119414" y2= "65394" />
  </g>
  <polygon class="fil1" points="116601,62089 116601,66781 121271,66781 121271,65847 117537,65842 117537,64897 121278,64911 121291,63938 117537,63952 117537,63022 121271,63024 121271,62089 "/>
  <polygon class="fil0" points="116601,62089 121291,62089 121291,63028 117539,63028 117539,63966 121291,63966 121291,64904 117539,64904 117539,65843 121291,65843 121291,66781 116601,66781 "/>
  <g>
   <line class="fil0" x1="127861" y1="65394" x2="128797" y2= "65394" />
  </g>
  <polygon class="fil1" points="125984,62090 125984,66781 130655,66781 130655,65846 126920,65842 126920,64897 130662,64911 130675,63938 126920,63952 126920,63022 130655,63025 130655,62090 "/>
  <polygon class="fil0" points="125984,62090 130675,62090 130675,63028 126922,63028 126922,63966 130675,63966 130675,64904 126922,64904 126922,65842 130675,65842 130675,66781 125984,66781 "/>
  <g>
   <line class="fil0" x1="138181" y1="63476" x2="137245" y2= "63476" />
  </g>
  <polygon class="fil1" points="140058,66781 140058,62089 135387,62089 135387,63024 139121,63028 139121,63973 135381,63959 135367,64933 139121,64918 139121,65849 135387,65846 135387,66781 "/>
  <polygon class="fil0" points="140058,66781 135367,66781 135367,65843 139120,65843 139120,64904 135367,64904 135367,63966 139120,63966 139120,63028 135367,63028 135367,62089 140058,62089 "/>
  <g>
   <line class="fil0" x1="146627" y1="65394" x2="147564" y2= "65394" />
  </g>
  <polygon class="fil1" points="144750,62090 144750,66781 149422,66781 149422,65846 145687,65842 145687,64897 149428,64911 149442,63938 145687,63952 145687,63022 149422,63025 149422,62090 "/>
  <polygon class="fil0" points="144750,62090 149442,62090 149442,63028 145688,63028 145688,63966 149442,63966 149442,64904 145688,64904 145688,65842 149442,65842 149442,66781 144750,66781 "/>
  <g>
   <line class="fil0" x1="113053" y1="72651" x2="113796" y2= "72651" />
  </g>
  <polygon class="fil1" points="111561,70027 111561,73752 115272,73752 115272,73010 112306,73007 112306,72256 115277,72267 115288,71494 112306,71506 112306,70767 115272,70769 115272,70027 "/>
  <polygon class="fil0" points="111561,70027 115288,70027 115288,70772 112307,70772 112307,71517 115288,71517 115288,72262 112307,72262 112307,73007 115288,73007 115288,73752 111561,73752 "/>
  <g>
   <line class="fil0" x1="121249" y1="71127" x2="120506" y2= "71127" />
  </g>
  <polygon class="fil1" points="122740,73753 122740,70026 119030,70026 119030,70768 121996,70772 121996,71522 119025,71511 119014,72285 121996,72273 121996,73012 119030,73010 119030,73753 "/>
  <polygon class="fil0" points="122740,73753 119014,73753 119014,73007 121995,73007 121995,72262 119014,72262 119014,71517 121995,71517 121995,70771 119014,70771 119014,70026 122740,70026 "/>
  <g>
   <line class="fil0" x1="127567" y1="71517" x2="127567" y2= "72261" />
  </g>
  <polygon class="fil1" points="130192,70026 126466,70026 126466,73736 127208,73736 127212,70770 127962,70770 127951,73742 128724,73752 128713,70770 129452,70770 129450,73736 130192,73736 "/>
  <polygon class="fil0" points="130192,70026 130192,73752 129447,73752 129447,70772 128702,70772 128702,73752 127957,73752 127957,70772 127211,70772 127211,73752 126466,73752 126466,70026 "/>
  <g>
   <line class="fil0" x1="135782" y1="70756" x2="135782" y2= "71499" />
  </g>
  <polygon class="fil1" points="137644,73753 137644,70026 133935,70026 133935,70768 136900,70772 136900,71522 133929,71511 133919,72285 136900,72273 136900,73012 133935,73010 133935,73753 "/>
  <polygon class="fil0" points="137644,73753 133919,73753 133919,73008 136899,73008 136899,72262 133919,72262 133919,71517 136899,71517 136899,70771 133919,70771 133919,70026 137644,70026 "/>
  <g>
   <line class="fil0" x1="142472" y1="71517" x2="142472" y2= "72261" />
  </g>
  <polygon class="fil1" points="145097,70026 141370,70026 141370,73736 142112,73736 142116,70770 142866,70770 142856,73742 143629,73752 143617,70770 144356,70770 144354,73736 145097,73736 "/>
  <polygon class="fil0" points="145097,70026 145097,73752 144351,73752 144351,70772 143606,70772 143606,73752 142861,73752 142861,70772 142116,70772 142116,73752 141370,73752 141370,70026 "/>
  <g>
   <line class="fil0" x1="117095" y1="78107" x2="117095" y2= "77516" />
  </g>
  <polygon class="fil1" points="115010,79292 117970,79292 117970,76344 117380,76344 117377,78701 116781,78701 116790,76340 116176,76331 116185,78701 115598,78701 115600,76344 115010,76344 "/>
  <polygon class="fil0" points="115010,79292 115010,76331 115602,76331 115602,78700 116194,78700 116194,76331 116786,76331 116786,78700 117378,78700 117378,76331 117970,76331 117970,79292 "/>
  <g>
   <line class="fil0" x1="121804" y1="77516" x2="121804" y2= "78106" />
  </g>
  <polygon class="fil1" points="123890,76332 120929,76332 120929,79278 121519,79278 121522,76923 122118,76923 122109,79283 122724,79291 122715,76923 123302,76923 123300,79278 123890,79278 "/>
  <polygon class="fil0" points="123890,76332 123890,79291 123298,79291 123298,76924 122706,76924 122706,79291 122114,79291 122114,76924 121521,76924 121521,79291 120929,79291 120929,76332 "/>
  <g>
   <line class="fil0" x1="127724" y1="77516" x2="127724" y2= "78107" />
  </g>
  <polygon class="fil1" points="129809,76331 126850,76331 126850,79279 127439,79279 127442,76922 128038,76922 128029,79283 128643,79291 128634,76922 129221,76922 129220,79279 129809,79279 "/>
  <polygon class="fil0" points="129809,76331 129809,79291 129217,79291 129217,76923 128626,76923 128626,79291 128033,79291 128033,76923 127441,76923 127441,79291 126850,79291 126850,76331 "/>
  <g>
   <line class="fil0" x1="135150" y1="77812" x2="134559" y2= "77812" />
  </g>
  <polygon class="fil1" points="132769,79291 135730,79291 135730,76344 135140,76344 135137,78700 134541,78700 134550,76340 133935,76332 133944,78700 133357,78700 133359,76344 132769,76344 "/>
  <polygon class="fil0" points="132769,79291 132769,76332 133361,76332 133361,78699 133953,78699 133953,76332 134545,76332 134545,78699 135138,78699 135138,76332 135730,76332 135730,79291 "/>
  <g>
   <line class="fil0" x1="140465" y1="77206" x2="139874" y2= "77206" />
  </g>
  <polygon class="fil1" points="141649,79291 141649,76331 138702,76331 138702,76921 141058,76924 141058,77520 138698,77511 138689,78125 141058,78116 141058,78703 138702,78702 138702,79291 "/>
  <polygon class="fil0" points="141649,79291 138689,79291 138689,78699 141057,78699 141057,78107 138689,78107 138689,77515 141057,77515 141057,76923 138689,76923 138689,76331 141649,76331 "/>
  <g>
   <line class="fil0" x1="119164" y1="82031" x2="118695" y2= "82031" />
  </g>
  <polygon class="fil1" points="120104,83686 120104,81337 117764,81337 117764,81804 119635,81807 119635,82280 117761,82273 117754,82761 119635,82753 119635,83219 117764,83218 117764,83686 "/>
  <polygon class="fil0" points="120104,83686 117754,83686 117754,83216 119634,83216 119634,82746 117754,82746 117754,82276 119634,82276 119634,81807 117754,81807 117754,81337 120104,81337 "/>
  <g>
   <line class="fil0" x1="123149" y1="82277" x2="123149" y2= "82746" />
  </g>
  <polygon class="fil1" points="124805,81337 122454,81337 122454,83676 122922,83676 122924,81806 123398,81806 123391,83679 123879,83686 123871,81806 124337,81806 124336,83676 124805,83676 "/>
  <polygon class="fil0" points="124805,81337 124805,83686 124334,83686 124334,81807 123864,81807 123864,83686 123394,83686 123394,81807 122924,81807 122924,83686 122454,83686 122454,81337 "/>
  <g>
   <line class="fil0" x1="128810" y1="82746" x2="128810" y2= "82277" />
  </g>
  <polygon class="fil1" points="127154,83686 129504,83686 129504,81347 129036,81347 129034,83217 128561,83217 128568,81343 128080,81337 128087,83217 127621,83217 127623,81347 127154,81347 "/>
  <polygon class="fil0" points="127154,83686 127154,81337 127624,81337 127624,83216 128094,83216 128094,81337 128564,81337 128564,83216 129034,83216 129034,81337 129504,81337 129504,83686 "/>
  <g>
   <line class="fil0" x1="133029" y1="81796" x2="133029" y2= "82265" />
  </g>
  <polygon class="fil1" points="134204,83687 134204,81336 131865,81336 131865,81804 133735,81806 133735,82280 131862,82273 131855,82761 133735,82754 133735,83220 131865,83218 131865,83687 "/>
  <polygon class="fil0" points="134204,83687 131855,83687 131855,83217 133734,83217 133734,82747 131855,82747 131855,82276 133734,82276 133734,81806 131855,81806 131855,81336 134204,81336 "/>
  <g>
   <line class="fil0" x1="137495" y1="82992" x2="137964" y2= "82992" />
  </g>
  <polygon class="fil1" points="136554,81337 136554,83686 138894,83686 138894,83218 137023,83216 137023,82743 138898,82750 138904,82262 137023,82269 137023,81804 138894,81805 138894,81337 "/>
  <polygon class="fil0" points="136554,81337 138904,81337 138904,81807 137024,81807 137024,82276 138904,82276 138904,82746 137024,82746 137024,83216 138904,83216 138904,83686 136554,83686 "/>
  <g>
   <line class="fil0" x1="120675" y1="86625" x2="121048" y2= "86625" />
  </g>
  <polygon class="fil1" points="119928,85311 119928,87176 121787,87176 121787,86804 120301,86803 120301,86427 121790,86432 121795,86045 120301,86051 120301,85681 121787,85682 121787,85311 "/>
  <polygon class="fil0" points="119928,85311 121795,85311 121795,85684 120301,85684 120301,86057 121795,86057 121795,86430 120301,86430 120301,86803 121795,86803 121795,87176 119928,87176 "/>
  <g>
   <line class="fil0" x1="124782" y1="85861" x2="124409" y2= "85861" />
  </g>
  <polygon class="fil1" points="125528,87177 125528,85309 123671,85309 123671,85681 125155,85683 125155,86059 123669,86054 123663,86441 125155,86435 125155,86806 123671,86805 123671,87177 "/>
  <polygon class="fil0" points="125528,87177 123663,87177 123663,86803 125155,86803 125155,86430 123663,86430 123663,86056 125155,86056 125155,85683 123663,85683 123663,85309 125528,85309 "/>
  <g>
   <line class="fil0" x1="128143" y1="86625" x2="128515" y2= "86625" />
  </g>
  <polygon class="fil1" points="127397,85310 127397,87177 129254,87177 129254,86805 127769,86803 127769,86427 129256,86432 129262,86045 127769,86051 127769,85681 129254,85682 129254,85310 "/>
  <polygon class="fil0" points="127397,85310 129262,85310 129262,85683 127770,85683 127770,86056 129262,86056 129262,86430 127770,86430 127770,86803 129262,86803 129262,87177 127397,87177 "/>
  <g>
   <line class="fil0" x1="131496" y1="86243" x2="131868" y2= "86243" />
  </g>
  <polygon class="fil1" points="132996,85310 131130,85310 131130,87168 131502,87168 131504,85683 131879,85683 131874,87171 132261,87176 132255,85683 132625,85683 132624,87168 132996,87168 "/>
  <polygon class="fil0" points="132996,85310 132996,87176 132623,87176 132623,85683 132250,85683 132250,87176 131876,87176 131876,85683 131503,85683 131503,87176 131130,87176 131130,85310 "/>
  <g>
   <line class="fil0" x1="135984" y1="85862" x2="135611" y2= "85862" />
  </g>
  <polygon class="fil1" points="136731,87176 136731,85311 134871,85311 134871,85682 136358,85684 136358,86060 134869,86054 134863,86441 136358,86435 136358,86805 134871,86804 134871,87176 "/>
  <polygon class="fil0" points="136731,87176 134863,87176 134863,86803 136357,86803 136357,86430 134863,86430 134863,86057 136357,86057 136357,85684 134863,85684 134863,85311 136731,85311 "/>
  <g>
   <line class="fil0" x1="122701" y1="89357" x2="122701" y2= "89061" />
  </g>
  <polygon class="fil1" points="121659,89950 123138,89950 123138,88474 122844,88474 122842,89654 122544,89654 122549,88472 122242,88468 122246,89654 121953,89654 121954,88474 121659,88474 "/>
  <polygon class="fil0" points="121659,89950 121659,88468 121955,88468 121955,89654 122251,89654 122251,88468 122547,88468 122547,89654 122842,89654 122842,88468 123138,88468 123138,89950 "/>
  <g>
   <line class="fil0" x1="125215" y1="89512" x2="125510" y2= "89512" />
  </g>
  <polygon class="fil1" points="124623,88469 124623,89949 126096,89949 126096,89654 124918,89653 124918,89355 126098,89359 126103,89052 124918,89056 124918,88763 126096,88764 126096,88469 "/>
  <polygon class="fil0" points="124623,88469 126103,88469 126103,88765 124919,88765 124919,89061 126103,89061 126103,89357 124919,89357 124919,89653 126103,89653 126103,89949 124623,89949 "/>
  <g>
   <line class="fil0" x1="128629" y1="89357" x2="128629" y2= "89061" />
  </g>
  <polygon class="fil1" points="127587,89949 129067,89949 129067,88475 128772,88475 128771,89654 128473,89654 128477,88473 128170,88469 128174,89654 127881,89654 127882,88475 127587,88475 "/>
  <polygon class="fil0" points="127587,89949 127587,88469 127883,88469 127883,89653 128179,89653 128179,88469 128475,88469 128475,89653 128771,89653 128771,88469 129067,88469 129067,89949 "/>
  <g>
   <line class="fil0" x1="130840" y1="89209" x2="131136" y2= "89209" />
  </g>
  <polygon class="fil1" points="132032,88469 130550,88469 130550,89942 130845,89942 130847,88765 131145,88765 131141,89944 131448,89949 131443,88765 131737,88765 131736,89942 132032,89942 "/>
  <polygon class="fil0" points="132032,88469 132032,89949 131735,89949 131735,88765 131439,88765 131439,89949 131143,89949 131143,88765 130847,88765 130847,89949 130550,89949 130550,88469 "/>
  <g>
   <line class="fil0" x1="134557" y1="89357" x2="134557" y2= "89061" />
  </g>
  <polygon class="fil1" points="133516,89950 134994,89950 134994,88474 134700,88474 134699,89654 134401,89654 134405,88472 134098,88468 134103,89654 133810,89654 133811,88474 133516,88474 "/>
  <polygon class="fil0" points="133516,89950 133516,88468 133812,88468 133812,89654 134107,89654 134107,88468 134403,88468 134403,89654 134699,89654 134699,88468 134994,88468 134994,89950 "/>
  <g>
   <line class="fil0" x1="123736" y1="91323" x2="123500" y2= "91323" />
  </g>
  <polygon class="fil1" points="124210,92151 124210,90976 123031,90976 123031,91210 123973,91211 123973,91448 123029,91444 123026,91688 123973,91685 123973,91918 123031,91917 123031,92151 "/>
  <polygon class="fil0" points="124210,92151 123026,92151 123026,91916 123973,91916 123973,91681 123026,91681 123026,91446 123973,91446 123973,91211 123026,91211 123026,90976 124210,90976 "/>
  <g>
   <line class="fil0" x1="125732" y1="91446" x2="125732" y2= "91681" />
  </g>
  <polygon class="fil1" points="126565,90975 125382,90975 125382,92147 125618,92147 125619,91210 125857,91210 125853,92148 126099,92152 126095,91210 126330,91210 126329,92147 126565,92147 "/>
  <polygon class="fil0" points="126565,90975 126565,92152 126328,92152 126328,91211 126092,91211 126092,92152 125855,92152 125855,91211 125619,91211 125619,92152 125382,92152 125382,90975 "/>
  <g>
   <line class="fil0" x1="128211" y1="91804" x2="128447" y2= "91804" />
  </g>
  <polygon class="fil1" points="127738,90975 127738,92152 128916,92152 128916,91917 127974,91916 127974,91679 128917,91683 128921,91439 127974,91442 127974,91209 128916,91210 128916,90975 "/>
  <polygon class="fil0" points="127738,90975 128921,90975 128921,91211 127974,91211 127974,91446 128921,91446 128921,91681 127974,91681 127974,91916 128921,91916 128921,92152 127738,92152 "/>
  <g>
   <line class="fil0" x1="131043" y1="91564" x2="130808" y2= "91564" />
  </g>
  <polygon class="fil1" points="130097,92155 131274,92155 131274,90978 131039,90978 131038,91919 130801,91919 130805,90976 130560,90973 130564,91919 130330,91919 130331,90978 130097,90978 "/>
  <polygon class="fil0" points="130097,92155 130097,90973 130332,90973 130332,91918 130567,91918 130567,90973 130803,90973 130803,91918 131038,91918 131038,90973 131274,90973 131274,92155 "/>
  <g>
   <line class="fil0" x1="132923" y1="91804" x2="133159" y2= "91804" />
  </g>
  <polygon class="fil1" points="132449,90976 132449,92151 133628,92151 133628,91917 132685,91916 132685,91679 133630,91683 133633,91439 132685,91443 132685,91210 133628,91210 133628,90976 "/>
  <polygon class="fil0" points="132449,90976 133633,90976 133633,91211 132686,91211 132686,91446 133633,91446 133633,91681 132686,91681 132686,91916 133633,91916 133633,92151 132449,92151 "/>
 </g>
 <polygon class="fil1" points="10858032,167442 10863939,167442 10863939,166260 10859735,166260 10863939,162715 10863939,161534 10858032,161534 10858032,162715 10862184,162715 10858032,166260 "/>
 <polygon class="fil1" points="10858032,167442 10863939,167442 10863939,166260 10859735,166260 10863939,162715 10863939,161534 10858032,161534 10858032,162715 10862184,162715 10858032,166260 "/>
 <polygon class="fil1" points="10858032,167442 10863939,167442 10863939,166260 10859735,166260 10863939,162715 10863939,161534 10858032,161534 10858032,162715 10862184,162715 10858032,166260 "/>
 <polygon class="fil1" points="10858032,167442 10863939,167442 10863939,166260 10859735,166260 10863939,162715 10863939,161534 10858032,161534 10858032,162715 10862184,162715 10858032,166260 "/>
 <polygon class="fil1" points="10858032,167442 10863939,167442 10863939,166260 10859735,166260 10863939,162715 10863939,161534 10858032,161534 10858032,162715 10862184,162715 10858032,166260 "/>
 <polygon class="fil1" points="10858032,167442 10863939,167442 10863939,166260 10859735,166260 10863939,162715 10863939,161534 10858032,161534 10858032,162715 10862184,162715 10858032,166260 "/>
 <polygon class="fil1" points="10858032,167442 10863939,167442 10863939,166260 10859735,166260 10863939,162715 10863939,161534 10858032,161534 10858032,162715 10862184,162715 10858032,166260 "/>
 <polygon class="fil1" points="10858032,167442 10863939,167442 10863939,166260 10859735,166260 10863939,162715 10863939,161534 10858032,161534 10858032,162715 10862184,162715 10858032,166260 "/>
 <polygon class="fil1" points="10858032,167442 10863939,167442 10863939,166260 10859735,166260 10863939,162715 10863939,161534 10858032,161534 10858032,162715 10862184,162715 10858032,166260 "/>
 <polygon class="fil1" points="10858032,167442 10863939,167442 10863939,166260 10859735,166260 10863939,162715 10863939,161534 10858032,161534 10858032,162715 10862184,162715 10858032,166260 "/>
 <polygon class="fil1" points="10858032,167442 10863939,167442 10863939,166260 10859735,166260 10863939,162715 10863939,161534 10858032,161534 10858032,162715 10862184,162715 10858032,166260 "/>
 <polygon class="fil1" points="10858032,167442 10863939,167442 10863939,166260 10859735,166260 10863939,162715 10863939,161534 10858032,161534 10858032,162715 10862184,162715 10858032,166260 "/>
 <polygon class="fil1" points="10858032,167442 10863939,167442 10863939,166260 10859735,166260 10863939,162715 10863939,161534 10858032,161534 10858032,162715 10862184,162715 10858032,166260 "/>
 <polygon class="fil1" points="10858032,167442 10863939,167442 10863939,166260 10859735,166260 10863939,162715 10863939,161534 10858032,161534 10858032,162715 10862184,162715 10858032,166260 "/>
 <polygon class="fil1" points="10858032,167442 10863939,167442 10863939,166260 10859735,166260 10863939,162715 10863939,161534 10858032,161534 10858032,162715 10862184,162715 10858032,166260 "/>
 <polygon class="fil1" points="10858032,167442 10863939,167442 10863939,166260 10859735,166260 10863939,162715 10863939,161534 10858032,161534 10858032,162715 10862184,162715 10858032,166260 "/>
 <polygon class="fil1" points="10858032,167442 10863939,167442 10863939,166260 10859735,166260 10863939,162715 10863939,161534 10858032,161534 10858032,162715 10862184,162715 10858032,166260 "/>
 <polygon class="fil1" points="10858032,167442 10863939,167442 10863939,166260 10859735,166260 10863939,162715 10863939,161534 10858032,161534 10858032,162715 10862184,162715 10858032,166260 "/>
 <polygon class="fil1" points="10858032,167442 10863939,167442 10863939,166260 10859735,166260 10863939,162715 10863939,161534 10858032,161534 10858032,162715 10862184,162715 10858032,166260 "/>
 <polygon class="fil1" points="10858032,167442 10863939,167442 10863939,166260 10859735,166260 10863939,162715 10863939,161534 10858032,161534 10858032,162715 10862184,162715 10858032,166260 "/>
 <polygon class="fil1" points="10858032,167442 10863939,167442 10863939,166260 10859735,166260 10863939,162715 10863939,161534 10858032,161534 10858032,162715 10862184,162715 10858032,166260 "/>
 <polygon class="fil1" points="10858032,167442 10863939,167442 10863939,166260 10859735,166260 10863939,162715 10863939,161534 10858032,161534 10858032,162715 10862184,162715 10858032,166260 "/>
 <polygon class="fil1" points="10858032,167442 10863939,167442 10863939,166260 10859735,166260 10863939,162715 10863939,161534 10858032,161534 10858032,162715 10862184,162715 10858032,166260 "/>
 <polygon class="fil1" points="10858032,167442 10863939,167442 10863939,166260 10859735,166260 10863939,162715 10863939,161534 10858032,161534 10858032,162715 10862184,162715 10858032,166260 "/>
</svg>
