<?xml version="1.0" encoding="UTF-8"?>
<!DOCTYPE svg PUBLIC "-//W3C//DTD SVG 1.1//EN" "http://www.w3.org/Graphics/SVG/1.1/DTD/svg11.dtd">
<!-- Creator: CorelDRAW X6 -->
<svg xmlns="http://www.w3.org/2000/svg" xml:space="preserve" width="282mm" height="235mm" version="1.1" style="shape-rendering:geometricPrecision; text-rendering:geometricPrecision; image-rendering:optimizeQuality; fill-rule:evenodd; clip-rule:evenodd"
viewBox="0 0 282000 235000"
 xmlns:xlink="http://www.w3.org/1999/xlink">
 <defs>
  <style type="text/css">
   <![CDATA[
    .str0 {stroke:navy;stroke-width:165.816;stroke-linecap:round;stroke-linejoin:round}
    .str1 {stroke:#191497;stroke-width:165.816;stroke-linecap:round;stroke-linejoin:round}
    .str2 {stroke:#FEFEFE;stroke-width:94;stroke-dasharray:94.000000 282.000001}
    .fil1 {fill:none}
    .fil3 {fill:#EBECEC}
    .fil0 {fill:black}
    .fil4 {fill:#2B2A29;fill-rule:nonzero}
    .fil2 {fill:black;fill-opacity:0.000000}
    .fnt1 {font-weight:normal;font-size:5803.18px;font-family:'Arial'}
    .fnt0 {font-weight:normal;font-size:6632.22px;font-family:'Arial'}
   ]]>
  </style>
 </defs>
 <g id="Letters">
  <metadata id="CorelCorpID_0Corel-Layer"/>
  <polygon class="fil0" points="10858032,167442 10863939,167442 10863939,166260 10859735,166260 10863939,162715 10863939,161534 10858032,161534 10858032,162715 10862184,162715 10858032,166260 "/>
  <polygon class="fil0" points="10858032,167442 10863939,167442 10863939,166260 10859735,166260 10863939,162715 10863939,161534 10858032,161534 10858032,162715 10862184,162715 10858032,166260 "/>
  <polygon class="fil0" points="10858032,167442 10863939,167442 10863939,166260 10859735,166260 10863939,162715 10863939,161534 10858032,161534 10858032,162715 10862184,162715 10858032,166260 "/>
  <polygon class="fil0" points="10858032,167442 10863939,167442 10863939,166260 10859735,166260 10863939,162715 10863939,161534 10858032,161534 10858032,162715 10862184,162715 10858032,166260 "/>
  <g id="_914556000">
   <line class="fil1" x1="80546" y1="18033" x2="85245" y2= "18033" />
  </g>
 </g>
 <g id="Scale">
  <metadata id="CorelCorpID_1Corel-Layer"/>
  <polyline class="fil1 str0" points="-9,4701 -9,1 4691,1 "/>
  <polyline class="fil1 str0" points="4691,133951 -9,133951 -9,129251 "/>
  <polyline class="fil1 str0" points="258491,129251 258491,133951 253791,133951 "/>
  <g transform="matrix(0.998088 0 0 1.00001 -136139 -101937)">
   <text x="141000" y="117500"  class="fil0 fnt0">1.0</text>
  </g>
  <g transform="matrix(0.998088 0 0 1.00001 -135934 -64535.7)">
   <text x="141000" y="117500"  class="fil0 fnt0">0.9</text>
  </g>
  <g transform="matrix(0.998088 0 0 1.00001 -135934 -34831.7)">
   <text x="141000" y="117500"  class="fil0 fnt0">0.8</text>
  </g>
  <g transform="matrix(0.998088 0 0 1.00001 -135927 -11242.4)">
   <text x="141000" y="117500"  class="fil0 fnt0">0.7</text>
  </g>
  <g transform="matrix(0.998088 0 0 1.00001 -135930 7491.81)">
   <text x="141000" y="117500"  class="fil0 fnt0">0.6</text>
  </g>
  <g transform="matrix(1.00092 0 0 0.999994 -140622 -112403)">
   <text x="141000" y="117500"  class="fil0 fnt1">LogMar</text>
  </g>
  <polyline class="fil1 str1" points="253791,1 258491,1 258491,4701 "/>
  <g transform="matrix(0.998088 0 0 1.00001 101032 -101938)">
   <text x="141000" y="117500"  class="fil0 fnt0">0.1</text>
  </g>
  <g transform="matrix(0.997612 0 0 1.00001 101100 -64537.4)">
   <text x="141000" y="117500"  class="fil0 fnt0">0.13</text>
  </g>
  <g transform="matrix(0.997612 0 0 1.00001 101100 -34831.7)">
   <text x="141000" y="117500"  class="fil0 fnt0">0.16</text>
  </g>
  <g transform="matrix(0.998088 0 0 1.00001 101502 -11242.4)">
   <text x="141000" y="117500"  class="fil0 fnt0">0.2</text>
  </g>
  <g transform="matrix(0.997612 0 0 1.00001 101100 7491.82)">
   <text x="141000" y="117500"  class="fil0 fnt0">0.25</text>
  </g>
  <g transform="matrix(1.00095 0 0 0.999994 106139 -112403)">
   <text x="141000" y="117500"  class="fil0 fnt1">Dec</text>
  </g>
  <g id="_143420016">
   <a xlink:href="../Axanivis_50TumblingE_Index.svg">
    <rect class="fil2" x="17850" y="95411" width="16450" height="37600"/>
    <rect class="fil3 str2" transform="matrix(1.1911E-013 4.49734 -2.95137 7.81658E-014 34300.7 95411.3)" width="8361" height="5574"/>
    <g>
     <g>
      <path class="fil4" d="M26311 104640l0 21869 -470 0 0 -21869 470 0zm-235 -2726l1439 2877 -2878 0 1439 -2877z"/>
     </g>
    </g>
   </a>
  </g>
  <polygon class="fil0" points="10858032,167442 10863939,167442 10863939,166260 10859735,166260 10863939,162715 10863939,161534 10858032,161534 10858032,162715 10862184,162715 10858032,166260 "/>
  <polygon class="fil0" points="10858032,167442 10863939,167442 10863939,166260 10859735,166260 10863939,162715 10863939,161534 10858032,161534 10858032,162715 10862184,162715 10858032,166260 "/>
  <polygon class="fil0" points="10858032,167442 10863939,167442 10863939,166260 10859735,166260 10863939,162715 10863939,161534 10858032,161534 10858032,162715 10862184,162715 10858032,166260 "/>
  <polygon class="fil0" points="10858032,167442 10863939,167442 10863939,166260 10859735,166260 10863939,162715 10863939,161534 10858032,161534 10858032,162715 10862184,162715 10858032,166260 "/>
  <polygon class="fil0" points="10858032,167442 10863939,167442 10863939,166260 10859735,166260 10863939,162715 10863939,161534 10858032,161534 10858032,162715 10862184,162715 10858032,166260 "/>
  <polygon class="fil0" points="10858032,167442 10863939,167442 10863939,166260 10859735,166260 10863939,162715 10863939,161534 10858032,161534 10858032,162715 10862184,162715 10858032,166260 "/>
  <polygon class="fil0" points="10858032,167442 10863939,167442 10863939,166260 10859735,166260 10863939,162715 10863939,161534 10858032,161534 10858032,162715 10862184,162715 10858032,166260 "/>
  <polygon class="fil0" points="10858032,167442 10863939,167442 10863939,166260 10859735,166260 10863939,162715 10863939,161534 10858032,161534 10858032,162715 10862184,162715 10858032,166260 "/>
  <g>
   <a xlink:href="Axanivis_50TumblingE1Full_B.svg">
    <rect class="fil2" x="220420" y="95411" width="16450" height="37600"/>
    <rect class="fil3 str2" transform="matrix(-3.5733E-013 -4.49734 2.95137 -2.34497E-013 220421 133011)" width="8361" height="5574"/>
    <g id="_143416848">
     <g>
      <path class="fil4" d="M228411 123782l0 -21869 470 0 0 21869 -470 0zm235 2727l-1439 -2877 2877 0 -1438 2877z"/>
     </g>
    </g>
   </a>
  </g>
  <polygon class="fil0" points="23936,24993 47483,24993 47483,1547 42794,1547 42771,20290 38029,20290 38097,1514 33212,1446 33284,20290 28615,20290 28628,1547 23936,1547 "/>
  <polygon class="fil1" points="23936,24993 23936,1446 28645,1446 28645,20283 33355,20283 33355,1446 38064,1446 38064,20283 42773,20283 42773,1446 47483,1446 47483,24993 "/>
  <polygon class="fil0" points="71124,1446 71124,24993 94570,24993 94570,20304 75826,20281 75826,15539 94603,15607 94671,10722 75826,10794 75826,6125 94570,6138 94570,1446 "/>
  <polygon class="fil1" points="71124,1446 94671,1446 94671,6155 75833,6155 75833,10864 94671,10864 94671,15574 75833,15574 75833,20283 94671,20283 94671,24993 71124,24993 "/>
  <g>
   <line class="fil1" x1="121439" y1="15627" x2="126139" y2= "15627" />
  </g>
  <g>
   <polygon class="fil0" points="141671,24993 141671,1446 118225,1446 118225,6135 136969,6158 136969,10899 118192,10831 118124,15716 136969,15644 136969,20313 118225,20300 118225,24993 "/>
   <polygon class="fil1" points="141671,24993 118124,24993 118124,20283 136961,20283 136961,15574 118124,15574 118124,10864 136961,10864 136961,6155 118124,6155 118124,1446 141671,1446 "/>
  </g>
  <g>
   <line class="fil1" x1="174583" y1="4761" x2="174583" y2= "9461" />
  </g>
  <g>
   <polygon class="fil0" points="165218,24993 188765,24993 188765,1547 184076,1547 184053,20290 179311,20290 179379,1514 174494,1446 174566,20290 169897,20290 169910,1547 165218,1547 "/>
   <polygon class="fil1" points="165218,24993 165218,1446 169927,1446 169927,20283 174637,20283 174637,1446 179346,1446 179346,20283 184055,20283 184055,1446 188765,1446 188765,24993 "/>
  </g>
  <g>
   <line class="fil1" x1="215477" y1="5363" x2="215477" y2= "10062" />
  </g>
  <g>
   <polygon class="fil0" points="235859,1446 212312,1446 212312,24892 217001,24892 217024,6148 221765,6148 221697,24925 226582,24993 226510,6148 231180,6148 231166,24892 235859,24892 "/>
   <polygon class="fil1" points="235859,1446 235859,24993 231149,24993 231149,6155 226440,6155 226440,24993 221731,24993 221731,6155 217021,6155 217021,24993 212312,24993 212312,1446 "/>
  </g>
  <g>
   <line class="fil1" x1="53027" y1="54445" x2="56759" y2= "54445" />
  </g>
  <g>
   <polygon class="fil0" points="45544,41271 45544,59972 64165,59972 64165,56248 49279,56230 49279,52464 64191,52518 64245,48639 49279,48696 49279,44987 64165,44998 64165,41271 "/>
   <polygon class="fil1" points="45544,41271 64245,41271 64245,45011 49284,45011 49284,48752 64245,48752 64245,52492 49284,52492 49284,56232 64245,56232 64245,59972 45544,59972 "/>
  </g>
  <g>
   <line class="fil1" x1="88672" y1="48754" x2="88672" y2= "52486" />
  </g>
  <g>
   <polygon class="fil0" points="101845,41271 83144,41271 83144,59892 86868,59892 86886,45006 90652,45006 90598,59919 94478,59972 94421,45006 98129,45006 98119,59892 101845,59892 "/>
   <polygon class="fil1" points="101845,41271 101845,59972 98105,59972 98105,45011 94365,45011 94365,59972 90625,59972 90625,45011 86884,45011 86884,59972 83144,59972 83144,41271 "/>
  </g>
  <g>
   <line class="fil1" x1="133720" y1="52489" x2="133720" y2= "48757" />
  </g>
  <g>
   <polygon class="fil0" points="120547,59972 139248,59972 139248,41351 135524,41351 135506,56238 131740,56238 131794,41325 127914,41271 127971,56238 124263,56238 124273,41351 120547,41351 "/>
   <polygon class="fil1" points="120547,59972 120547,41271 124287,41271 124287,56232 128027,56232 128027,41271 131767,41271 131767,56232 135508,56232 135508,41271 139248,41271 139248,59972 "/>
  </g>
  <g>
   <line class="fil1" x1="165432" y1="54445" x2="169165" y2= "54445" />
  </g>
  <g>
   <polygon class="fil0" points="157949,41271 157949,59972 176570,59972 176570,56248 161684,56230 161684,52464 176597,52518 176651,48639 161684,48696 161684,44987 176570,44998 176570,41271 "/>
   <polygon class="fil1" points="157949,41271 176651,41271 176651,45011 161689,45011 161689,48752 176651,48752 176651,52492 161689,52492 161689,56232 176651,56232 176651,59972 157949,59972 "/>
  </g>
  <g>
   <line class="fil1" x1="206565" y1="46799" x2="202833" y2= "46799" />
  </g>
  <g>
   <polygon class="fil0" points="214048,59972 214048,41271 195427,41271 195427,44995 210314,45013 210314,48779 195401,48725 195347,52605 210314,52548 210314,56256 195427,56246 195427,59972 "/>
   <polygon class="fil1" points="214048,59972 195347,59972 195347,56232 210308,56232 210308,52492 195347,52492 195347,48752 210308,48752 210308,45011 195347,45011 195347,41271 214048,41271 "/>
  </g>
  <g>
   <line class="fil1" x1="73525" y1="81809" x2="73525" y2= "78845" />
  </g>
  <g>
   <polygon class="fil0" points="63063,87752 77915,87752 77915,72964 74958,72964 74943,84786 71953,84786 71996,72943 68914,72900 68960,84786 66015,84786 66023,72964 63063,72964 "/>
   <polygon class="fil1" points="63063,87752 63063,72900 66034,72900 66034,84781 69004,84781 69004,72900 71974,72900 71974,84781 74945,84781 74945,72900 77915,72900 77915,87752 "/>
  </g>
  <g>
   <line class="fil1" x1="101676" y1="77290" x2="98712" y2= "77290" />
  </g>
  <g>
   <polygon class="fil0" points="107619,87752 107619,72900 92831,72900 92831,75857 104653,75872 104653,78862 92810,78820 92767,81901 104653,81855 104653,84800 92831,84792 92831,87752 "/>
   <polygon class="fil1" points="107619,87752 92767,87752 92767,84781 104649,84781 104649,81811 92767,81811 92767,78841 104649,78841 104649,75870 92767,75870 92767,72900 107619,72900 "/>
  </g>
  <g>
   <line class="fil1" x1="128414" y1="83362" x2="131378" y2= "83362" />
  </g>
  <g>
   <polygon class="fil0" points="122471,72900 122471,87752 137260,87752 137260,84794 125437,84780 125437,81789 137280,81832 137323,78751 125437,78796 125437,75851 137260,75859 137260,72900 "/>
   <polygon class="fil1" points="122471,72900 137323,72900 137323,75870 125442,75870 125442,78841 137323,78841 137323,81811 125442,81811 125442,84781 137323,84781 137323,87752 122471,87752 "/>
  </g>
  <g>
   <line class="fil1" x1="162637" y1="81809" x2="162637" y2= "78845" />
  </g>
  <g>
   <polygon class="fil0" points="152175,87752 167027,87752 167027,72964 164070,72964 164055,84786 161065,84786 161108,72943 158026,72900 158072,84786 155127,84786 155135,72964 152175,72964 "/>
   <polygon class="fil1" points="152175,87752 152175,72900 155146,72900 155146,84781 158116,84781 158116,72900 161086,72900 161086,84781 164057,84781 164057,72900 167027,72900 167027,87752 "/>
  </g>
  <g>
   <line class="fil1" x1="187822" y1="83362" x2="190786" y2= "83362" />
  </g>
  <g>
   <polygon class="fil0" points="181879,72900 181879,87752 196668,87752 196668,84794 184845,84780 184845,81789 196688,81832 196731,78751 184845,78796 184845,75851 196668,75859 196668,72900 "/>
   <polygon class="fil1" points="181879,72900 196731,72900 196731,75870 184850,75870 184850,78841 196731,78841 196731,81811 184850,81811 184850,84781 196731,84781 196731,87752 181879,87752 "/>
  </g>
  <g>
   <line class="fil1" x1="83897" y1="101503" x2="81542" y2= "101503" />
  </g>
  <g>
   <polygon class="fil0" points="88617,109814 88617,98017 76871,98017 76871,100366 86261,100377 86261,102753 76854,102719 76820,105166 86261,105130 86261,107469 76871,107463 76871,109814 "/>
   <polygon class="fil1" points="88617,109814 76820,109814 76820,107454 86258,107454 86258,105095 76820,105095 76820,102735 86258,102735 86258,100376 76820,100376 76820,98017 88617,98017 "/>
  </g>
  <g>
   <line class="fil1" x1="105130" y1="106327" x2="107484" y2= "106327" />
  </g>
  <g>
   <polygon class="fil0" points="100409,98017 100409,109814 112156,109814 112156,107464 102765,107453 102765,105077 112172,105112 112206,102664 102765,102700 102765,100361 112156,100367 112156,98017 "/>
   <polygon class="fil1" points="100409,98017 112206,98017 112206,100376 102769,100376 102769,102735 112206,102735 112206,105095 102769,105095 102769,107454 112206,107454 112206,109814 100409,109814 "/>
  </g>
  <g>
   <line class="fil1" x1="132309" y1="105093" x2="132309" y2= "102739" />
  </g>
  <g>
   <polygon class="fil0" points="123999,109814 135796,109814 135796,98067 133447,98067 133435,107458 131060,107458 131094,98051 128646,98017 128682,107458 126343,107458 126350,98067 123999,98067 "/>
   <polygon class="fil1" points="123999,109814 123999,98017 126358,98017 126358,107454 128718,107454 128718,98017 131077,98017 131077,107454 133436,107454 133436,98017 135796,98017 135796,109814 "/>
  </g>
  <g>
   <line class="fil1" x1="152309" y1="106327" x2="154663" y2= "106327" />
  </g>
  <g>
   <polygon class="fil0" points="147588,98017 147588,109814 159334,109814 159334,107464 149944,107453 149944,105077 159351,105112 159385,102664 149944,102700 149944,100361 159334,100367 159334,98017 "/>
   <polygon class="fil1" points="147588,98017 159385,98017 159385,100376 149947,100376 149947,102735 159385,102735 159385,105095 149947,105095 149947,107454 159385,107454 159385,109814 147588,109814 "/>
  </g>
  <g>
   <line class="fil1" x1="179488" y1="105093" x2="179488" y2= "102739" />
  </g>
  <g>
   <polygon class="fil0" points="171177,109814 182974,109814 182974,98067 180625,98067 180614,107458 178238,107458 178272,98051 175825,98017 175861,107458 173522,107458 173528,98067 171177,98067 "/>
   <polygon class="fil1" points="171177,109814 171177,98017 173537,98017 173537,107454 175896,107454 175896,98017 178256,98017 178256,107454 180615,107454 180615,98017 182974,98017 182974,109814 "/>
  </g>
  <g>
   <line class="fil1" x1="94297" y1="123585" x2="94297" y2= "121715" />
  </g>
  <g>
   <polygon class="fil0" points="87698,127333 97065,127333 97065,118006 95200,118006 95191,125462 93305,125462 93332,117993 91389,117966 91417,125462 89560,125462 89565,118006 87698,118006 "/>
   <polygon class="fil1" points="87698,127333 87698,117966 89572,117966 89572,125459 91445,125459 91445,117966 93319,117966 93319,125459 95192,125459 95192,117966 97065,117966 97065,127333 "/>
  </g>
  <g>
   <line class="fil1" x1="110228" y1="124564" x2="112097" y2= "124564" />
  </g>
  <g>
   <polygon class="fil0" points="106480,117966 106480,127333 115806,127333 115806,125467 108350,125458 108350,123572 115820,123599 115847,121656 108350,121685 108350,119827 115806,119832 115806,117966 "/>
   <polygon class="fil1" points="106480,117966 115847,117966 115847,119839 108353,119839 108353,121713 115847,121713 115847,123586 108353,123586 108353,125459 115847,125459 115847,127333 106480,127333 "/>
  </g>
  <g>
   <line class="fil1" x1="130833" y1="120652" x2="128963" y2= "120652" />
  </g>
  <g>
   <polygon class="fil0" points="134581,127250 134581,117883 125254,117883 125254,119748 132710,119757 132710,121644 125241,121617 125214,123560 132710,123531 132710,125389 125254,125383 125254,127250 "/>
   <polygon class="fil1" points="134581,127250 125214,127250 125214,125377 132707,125377 132707,123503 125214,123503 125214,121630 132707,121630 132707,119756 125214,119756 125214,117883 134581,117883 "/>
  </g>
  <g>
   <line class="fil1" x1="150546" y1="123585" x2="150546" y2= "121715" />
  </g>
  <g>
   <polygon class="fil0" points="143948,127333 153315,127333 153315,118006 151450,118006 151441,125462 149554,125462 149581,117993 147638,117966 147667,125462 145809,125462 145815,118006 143948,118006 "/>
   <polygon class="fil1" points="143948,127333 143948,117966 145821,117966 145821,125459 147695,125459 147695,117966 149568,117966 149568,125459 151442,125459 151442,117966 153315,117966 153315,127333 "/>
  </g>
  <g>
   <line class="fil1" x1="166430" y1="124564" x2="168300" y2= "124564" />
  </g>
  <g>
   <polygon class="fil0" points="162682,117966 162682,127333 172009,127333 172009,125467 164553,125458 164553,123572 172022,123599 172049,121656 164553,121685 164553,119827 172009,119832 172009,117966 "/>
   <polygon class="fil1" points="162682,117966 172049,117966 172049,119839 164556,119839 164556,121713 172049,121713 172049,123586 164556,123586 164556,125459 172049,125459 172049,127333 162682,127333 "/>
  </g>
 </g>
</svg>
