<?xml version="1.0" encoding="UTF-8"?>
<!DOCTYPE svg PUBLIC "-//W3C//DTD SVG 1.1//EN" "http://www.w3.org/Graphics/SVG/1.1/DTD/svg11.dtd">
<!-- Creator: CorelDRAW X6 -->
<svg xmlns="http://www.w3.org/2000/svg" xml:space="preserve" width="282mm" height="235mm" version="1.1" style="shape-rendering:geometricPrecision; text-rendering:geometricPrecision; image-rendering:optimizeQuality; fill-rule:evenodd; clip-rule:evenodd"
viewBox="0 0 282000 235000"
 xmlns:xlink="http://www.w3.org/1999/xlink">
 <defs>
  <style type="text/css">
   <![CDATA[
    .str2 {stroke:navy;stroke-width:165.816;stroke-linecap:round;stroke-linejoin:round}
    .str0 {stroke:#191497;stroke-width:165.816;stroke-linecap:round;stroke-linejoin:round}
    .str3 {stroke:#FEFEFE;stroke-width:94;stroke-dasharray:94.000000 282.000001}
    .str1 {stroke:black;stroke-width:1175}
    .fil0 {fill:none}
    .fil3 {fill:#EBECEC}
    .fil1 {fill:black}
    .fil4 {fill:#2B2A29;fill-rule:nonzero}
    .fil2 {fill:black;fill-opacity:0.000000}
    .fnt0 {font-weight:normal;font-size:7421.35px;font-family:'Arial'}
   ]]>
  </style>
 </defs>
 <g id="Scale">
  <metadata id="CorelCorpID_0Corel-Layer"/>
  <polyline class="fil0 str0" points="253795,7 258495,7 258495,4707 "/>
  <polygon class="fil1" points="10858032,167442 10863939,167442 10863939,166260 10859735,166260 10863939,162715 10863939,161534 10858032,161534 10858032,162715 10862184,162715 10858032,166260 "/>
  <polygon class="fil1" points="10858032,167442 10863939,167442 10863939,166260 10859735,166260 10863939,162715 10863939,161534 10858032,161534 10858032,162715 10862184,162715 10858032,166260 "/>
  <polygon class="fil1" points="10858032,167442 10863939,167442 10863939,166260 10859735,166260 10863939,162715 10863939,161534 10858032,161534 10858032,162715 10862184,162715 10858032,166260 "/>
  <polygon class="fil1" points="10858032,167442 10863939,167442 10863939,166260 10859735,166260 10863939,162715 10863939,161534 10858032,161534 10858032,162715 10862184,162715 10858032,166260 "/>
  <polygon class="fil1" points="10858032,167442 10863939,167442 10863939,166260 10859735,166260 10863939,162715 10863939,161534 10858032,161534 10858032,162715 10862184,162715 10858032,166260 "/>
  <polygon class="fil1" points="10858032,167442 10863939,167442 10863939,166260 10859735,166260 10863939,162715 10863939,161534 10858032,161534 10858032,162715 10862184,162715 10858032,166260 "/>
  <polygon class="fil1" points="10858032,167442 10863939,167442 10863939,166260 10859735,166260 10863939,162715 10863939,161534 10858032,161534 10858032,162715 10862184,162715 10858032,166260 "/>
  <polygon class="fil1" points="10858032,167442 10863939,167442 10863939,166260 10859735,166260 10863939,162715 10863939,161534 10858032,161534 10858032,162715 10862184,162715 10858032,166260 "/>
  <g id="_710384288">
   <g>
    <g>
     <line class="fil0 str1" x1="75224" y1="70607" x2="187425" y2= "70607" />
    </g>
    <g>
     <line class="fil0 str1" x1="131325" y1="126707" x2="131325" y2= "14507" />
    </g>
    <g>
     <line class="fil0 str1" x1="159375" y1="119191" x2="103275" y2= "22023" />
    </g>
    <g>
     <line class="fil0 str1" x1="179909" y1="98657" x2="82740" y2= "42557" />
    </g>
    <g>
     <line class="fil0 str1" x1="179909" y1="42557" x2="82740" y2= "98657" />
    </g>
    <g>
     <line class="fil0 str1" x1="159375" y1="22023" x2="103275" y2= "119191" />
    </g>
    <g>
     <line class="fil0 str1" x1="145844" y1="16418" x2="116805" y2= "124795" />
    </g>
    <g>
     <line class="fil0 str1" x1="116805" y1="16418" x2="145844" y2= "124795" />
    </g>
    <g>
     <line class="fil0 str1" x1="91656" y1="30938" x2="170993" y2= "110275" />
    </g>
    <g>
     <line class="fil0 str1" x1="77136" y1="56087" x2="185513" y2= "85126" />
    </g>
    <g>
     <line class="fil0 str1" x1="77136" y1="85126" x2="185513" y2= "56087" />
    </g>
    <g>
     <line class="fil0 str1" x1="91656" y1="110275" x2="170993" y2= "30938" />
    </g>
   </g>
   <g transform="matrix(0.998088 0 0 1.00001 -13348.4 -109138)">
    <text x="141000" y="117500"  class="fil1 fnt0">90</text>
   </g>
   <g transform="matrix(0.998088 0 0 1.00001 55330.3 -44997.6)">
    <text x="141000" y="117500"  class="fil1 fnt0">0</text>
   </g>
   <g transform="matrix(0.998088 0 0 1.00001 -82863.8 -44581.7)">
    <text x="141000" y="117500"  class="fil1 fnt0">180</text>
   </g>
   <g transform="matrix(0.998088 0 0 1.00001 49735.2 -60400.8)">
    <text x="141000" y="117500"  class="fil1 fnt0">15</text>
   </g>
   <g transform="matrix(0.998088 0 0 1.00001 42751.7 -75830.2)">
    <text x="141000" y="117500"  class="fil1 fnt0">30</text>
   </g>
   <g transform="matrix(0.998088 0 0 1.00001 32203.9 -90565.8)">
    <text x="141000" y="117500"  class="fil1 fnt0">45</text>
   </g>
   <g transform="matrix(0.998088 0 0 1.00001 21012.9 -100372)">
    <text x="141000" y="117500"  class="fil1 fnt0">60</text>
   </g>
   <g transform="matrix(0.998088 0 0 1.00001 5681.26 -106729)">
    <text x="141000" y="117500"  class="fil1 fnt0">75</text>
   </g>
   <g transform="matrix(0.998088 0 0 1.00001 -31916.7 -106683)">
    <text x="141000" y="117500"  class="fil1 fnt0">105</text>
   </g>
   <g transform="matrix(0.998088 0 0 1.00001 -49769.6 -100372)">
    <text x="141000" y="117500"  class="fil1 fnt0">120</text>
   </g>
   <g transform="matrix(0.998088 0 0 1.00001 -61719.9 -90556.5)">
    <text x="141000" y="117500"  class="fil1 fnt0">135</text>
   </g>
   <g transform="matrix(0.998088 0 0 1.00001 -71508.4 -75828.4)">
    <text x="141000" y="117500"  class="fil1 fnt0">150</text>
   </g>
   <g transform="matrix(0.998088 0 0 1.00001 -78549.9 -60400.8)">
    <text x="141000" y="117500"  class="fil1 fnt0">165</text>
   </g>
  </g>
  <polyline class="fil0 str2" points="-5,4707 -5,7 4695,7 "/>
  <polyline class="fil0 str2" points="4695,133957 -5,133957 -5,129257 "/>
  <g id="_710390880">
   <a xlink:href="Axanivis_50Etdrs_Index.svg">
    <rect class="fil2" x="935" y="94761" width="17194" height="38255"/>
    <rect class="fil3 str3" transform="matrix(1.21187E-013 4.57578 -3.0849 8.1702E-014 18129.4 94761.2)" width="8361" height="5574"/>
    <g>
     <g>
      <path class="fil4" d="M10002 106831l0 19570 -940 0 0 -19570 940 0zm-470 -5454l2878 5754 -5754 0 2876 -5754z"/>
     </g>
    </g>
   </a>
  </g>
  <polyline class="fil0 str0" points="253795,133957 258495,133957 258495,129257 "/>
 </g>
</svg>
